<svg xmlns="http://www.w3.org/2000/svg" width="160" height="38" viewBox="0 0 160 38"><g fill="#242627" fill-rule="nonzero"><path d="M10.81 38c3.41 0 6.54-.99 9.39-2.96 2.84-1.97 4.93-4.86 6.28-8.69.11-.26.17-.55.17-.87a2 2 0 0 0-.8-1.64 3 3 0 0 0-1.91-.64c-.58 0-1.12.15-1.6.44-.48.3-.82.74-1.03 1.36-1.05 2.62-2.48 4.57-4.29 5.84a9.52 9.52 0 0 1-5.51 1.9 5.4 5.4 0 0 1-3.59-1.13 3.56 3.56 0 0 1-1.36-2.85c0-.5.1-1.02.27-1.57L9.5 19.6c.2-.5.5-.9.87-1.22.38-.32.75-.48 1.1-.48.43 0 .76.11.98.35.22.23.33.54.33.92 0 .43-.16.97-.48 1.61-.24.47-.35.91-.35 1.32 0 .76.3 1.4.9 1.92.6.53 1.29.8 2.07.8.7 0 1.35-.23 1.95-.69a4.77 4.77 0 0 0 1.47-2.12c.4-1.1.61-2.19.61-3.24a6.12 6.12 0 0 0-3.61-5.71 8.98 8.98 0 0 0-8.77.9 9.6 9.6 0 0 0-3.55 4.94l-2.5 7.36A9.67 9.67 0 0 0 0 29.33c0 1.67.45 3.15 1.36 4.47a9.02 9.02 0 0 0 3.83 3.08C6.83 37.63 8.7 38 10.8 38Zm26.35 0c2.15 0 4.26-.68 6.3-2.04 2.04-1.35 3.7-3.65 4.99-6.9l.35-.95c.2-.56.38-1.07.52-1.54.15-.46.22-.83.22-1.1 0-.7-.23-1.25-.7-1.65a2.5 2.5 0 0 0-1.7-.62c-.68 0-1.3.2-1.87.62-.57.4-.98 1-1.24 1.8-.8 2.47-1.78 4.29-2.96 5.44-1.18 1.15-2.34 1.73-3.48 1.73-.38 0-.67-.1-.87-.28-.2-.2-.3-.46-.3-.81a5 5 0 0 1 .21-1.27l4.9-14.19c.18-.52.26-1 .26-1.44 0-.9-.3-1.62-.94-2.15a3.4 3.4 0 0 0-2.25-.79c-.64 0-1.25.15-1.82.44-.57.3-1.03.7-1.38 1.23a7.88 7.88 0 0 0-2.07-.88c-.84-.23-1.76-.35-2.78-.35-1.55 0-3 .43-4.36 1.27a6.8 6.8 0 0 0-2.86 3.68L19.2 29.03c-.29.87-.44 1.66-.44 2.36 0 1.2.3 2.3.9 3.3A6.69 6.69 0 0 0 25.56 38c1.02 0 2.03-.21 3.04-.63 1-.43 1.92-1 2.73-1.73a4.82 4.82 0 0 0 2.63 1.83c1.14.35 2.2.53 3.2.53Zm-10.07-5.21c-.47 0-.82-.14-1.07-.42-.25-.27-.37-.67-.37-1.2 0-.47.08-.96.26-1.49l2.8-8.8c.61-2.01 1.53-3.02 2.76-3.02.43 0 .83.21 1.2.64.36.42.55.98.55 1.68a9.3 9.3 0 0 1-.53 2.58l-2.1 6.53a5.68 5.68 0 0 1-1.6 2.69c-.65.54-1.29.81-1.9.81ZM58.51 38c2.4 0 4.62-1.02 6.68-3.06 2.05-2.05 3.72-4.9 5-8.59a1.85 1.85 0 0 0-.74-2.28 3.35 3.35 0 0 0-3.6-.14c-.49.3-.82.76-1 1.37a22.38 22.38 0 0 1-2.81 5.41C61 32.1 60.03 32.8 59.12 32.8a.78.78 0 0 1-.67-.35 1.43 1.43 0 0 1-.24-.83c0-.32.05-.64.17-.96l2.58-7.18c.3-.97.44-1.77.44-2.41 0-1.81-.78-3.22-2.34-4.23-1.56-1-3.35-1.81-5.36-2.43a3.54 3.54 0 0 0-.96-3.7A3.64 3.64 0 0 0 50.1 9.6c-1.26 0-2.25.46-3 1.4A5.24 5.24 0 0 0 46 14.36c0 1.17.36 2.2 1.09 3.1l-3.2 8.63a4 4 0 0 0-.13.97c0 .7.24 1.24.7 1.62.47.37 1.03.56 1.67.56a3.2 3.2 0 0 0 3.02-2.1l2.45-6.56c.14.03.44.11.9.26.45.14.88.36 1.3.63.43.28.64.71.64 1.3 0 .2-.04.46-.13.78L52.4 28.9c-.35 1-.53 1.93-.53 2.8a6.1 6.1 0 0 0 3.3 5.52c1.01.53 2.13.79 3.35.79ZM75.14 8.27c1 0 1.84-.35 2.54-1.07a3.53 3.53 0 0 0 1.05-2.56c0-1-.35-1.83-1.05-2.52a3.5 3.5 0 0 0-2.54-1.03c-.99 0-1.84.35-2.54 1.03a3.39 3.39 0 0 0-1.05 2.52c0 1 .35 1.85 1.05 2.56.7.72 1.55 1.07 2.54 1.07ZM70.2 38c2.42 0 4.68-.9 6.78-2.7 2.1-1.79 3.87-4.79 5.3-8.99.08-.26.13-.52.13-.79 0-.64-.27-1.16-.8-1.57a3.11 3.11 0 0 0-4.73 1.36c-.95 2.62-1.96 4.53-3.03 5.7-1.06 1.19-2.1 1.78-3.08 1.78-.5 0-.9-.14-1.2-.42-.31-.27-.47-.63-.47-1.07 0-.2.05-.44.13-.7l4.82-13.75c.26-.84.4-1.38.4-1.61 0-.91-.3-1.62-.88-2.15a2.97 2.97 0 0 0-2.06-.79c-.73 0-1.42.26-2.06.77a4.59 4.59 0 0 0-1.44 2.25c-.79 2.34-1.7 4.93-2.71 7.8-.73 2.21-1.38 4.08-1.93 5.6a12.2 12.2 0 0 0-.61 2.8c0 1.99.71 3.56 2.14 4.73A8.1 8.1 0 0 0 70.2 38Zm23.32 0c2.4 0 4.7-.94 6.9-2.82 2.2-1.89 3.99-4.84 5.36-8.87.11-.4.17-.7.17-.87 0-.65-.26-1.16-.79-1.56-.52-.4-1.15-.59-1.88-.59-.64 0-1.22.17-1.75.5-.52.34-.87.84-1.05 1.51-.93 2.51-1.95 4.39-3.06 5.63-1.11 1.24-2.19 1.86-3.24 1.86-.4 0-.74-.12-.99-.37a1.28 1.28 0 0 1-.37-.94c0-.27.08-.62.22-1.05l8.93-25.79c.26-.79.4-1.37.4-1.75 0-.9-.31-1.61-.93-2.12A3.25 3.25 0 0 0 99.3 0c-.7 0-1.35.27-1.95.81a5.8 5.8 0 0 0-1.46 2.47l-3.99 11.3a6.9 6.9 0 0 0-2.38-1.69 7.8 7.8 0 0 0-7.18.68 6.87 6.87 0 0 0-2.82 3.64l-4.16 11.82c-.3.78-.44 1.62-.44 2.5a6.17 6.17 0 0 0 3.42 5.64c1.05.55 2.2.83 3.45.83 1.08 0 2.16-.2 3.22-.6 1.07-.39 2.02-1 2.87-1.8a6.84 6.84 0 0 0 2.51 1.77 8 8 0 0 0 3.13.63Zm-8.84-7.31c-.73.5-1.37.68-1.92.57-.7-.18-1.05-.7-1.05-1.58 0-.46.08-.96.26-1.49l2.5-7.3a5.47 5.47 0 0 1 1.3-2.37c.5-.44.98-.66 1.45-.66.44 0 .84.21 1.2.64.37.42.55.98.55 1.68 0 .76-.17 1.62-.52 2.58l-1.8 5.04c-.58 1.43-1.24 2.4-1.97 2.89ZM116.41 38c2.16 0 4.26-.68 6.3-2.04 2.05-1.35 3.7-3.65 5-6.9l.34-.95c.2-.56.38-1.07.53-1.54.14-.46.22-.83.22-1.1 0-.7-.24-1.25-.7-1.65a2.5 2.5 0 0 0-1.71-.62c-.67 0-1.3.2-1.86.62-.57.4-.99 1-1.25 1.8-.79 2.47-1.77 4.29-2.95 5.44-1.18 1.15-2.34 1.73-3.48 1.73-.38 0-.67-.1-.88-.28-.2-.2-.3-.46-.3-.81a5 5 0 0 1 .22-1.27l4.9-14.19c.17-.52.26-1 .26-1.44 0-.9-.31-1.62-.94-2.15a3.4 3.4 0 0 0-2.25-.79c-.65 0-1.25.15-1.82.44-.57.3-1.03.7-1.38 1.23a7.88 7.88 0 0 0-2.08-.88c-.83-.23-1.76-.35-2.78-.35-1.54 0-3 .43-4.35 1.27a6.8 6.8 0 0 0-2.87 3.68l-4.11 11.78c-.3.87-.44 1.66-.44 2.36 0 1.2.3 2.3.9 3.3A6.69 6.69 0 0 0 104.8 38c1.03 0 2.04-.21 3.05-.63 1-.43 1.91-1 2.73-1.73a4.82 4.82 0 0 0 2.63 1.83c1.13.35 2.2.53 3.2.53Zm-10.06-5.21c-.47 0-.83-.14-1.08-.42-.24-.27-.37-.67-.37-1.2 0-.47.09-.96.26-1.49l2.8-8.8c.62-2.01 1.54-3.02 2.76-3.02.44 0 .84.21 1.2.64.37.42.55.98.55 1.68a9.3 9.3 0 0 1-.52 2.58l-2.1 6.53a5.68 5.68 0 0 1-1.6 2.69c-.66.54-1.3.81-1.9.81ZM140 38c2.4 0 4.69-.94 6.9-2.82 2.2-1.89 3.98-4.84 5.35-8.87.12-.4.18-.7.18-.87 0-.65-.26-1.16-.79-1.56-.52-.4-1.15-.59-1.88-.59-.64 0-1.23.17-1.75.5-.53.34-.88.84-1.05 1.51-.94 2.51-1.96 4.39-3.07 5.63-1.1 1.24-2.18 1.86-3.23 1.86-.41 0-.74-.12-.99-.37a1.28 1.28 0 0 1-.37-.94c0-.27.07-.62.22-1.05l8.93-25.79c.26-.79.39-1.37.39-1.75 0-.9-.3-1.61-.92-2.12a3.25 3.25 0 0 0-2.14-.77c-.7 0-1.35.27-1.95.81a5.8 5.8 0 0 0-1.47 2.47l-3.98 11.3a6.9 6.9 0 0 0-2.38-1.69 7.8 7.8 0 0 0-7.18.68 6.87 6.87 0 0 0-2.82 3.64l-4.16 11.82c-.3.78-.44 1.62-.44 2.5a6.17 6.17 0 0 0 3.41 5.64c1.05.55 2.2.83 3.46.83 1.08 0 2.15-.2 3.22-.6 1.06-.39 2.02-1 2.86-1.8a6.84 6.84 0 0 0 2.52 1.77A8 8 0 0 0 140 38Zm-8.84-7.31c-.73.5-1.37.68-1.93.57-.7-.18-1.05-.7-1.05-1.58 0-.46.1-.96.27-1.49l2.5-7.3a5.47 5.47 0 0 1 1.3-2.37c.5-.44.98-.66 1.45-.66.44 0 .84.21 1.2.64.37.42.55.98.55 1.68 0 .76-.18 1.62-.53 2.58l-1.8 5.04c-.57 1.43-1.23 2.4-1.96 2.89ZM156.41 37.7c1 0 1.84-.36 2.54-1.06.7-.7 1.05-1.54 1.05-2.54 0-.99-.35-1.84-1.05-2.54a3.46 3.46 0 0 0-2.54-1.05c-1 0-1.84.35-2.54 1.03a3.44 3.44 0 0 0-1.05 2.56c0 1 .35 1.84 1.05 2.54.7.7 1.55 1.05 2.54 1.05Z"></path></g></svg>