<svg xmlns="http://www.w3.org/2000/svg" width="118" height="38" viewBox="0 0 118 38"><g fill="#242627" fill-rule="nonzero"><path d="M23.4 28.83c.36 0 .63.16.83.48.2.33.3.77.3 1.33a3.7 3.7 0 0 1-.76 2.5 19.43 19.43 0 0 1-3.63 3.43 6.66 6.66 0 0 1-3.9 1.43c-2.05 0-3.6-1.2-4.68-3.58a11.57 11.57 0 0 1-2.96 2.86c-.84.48-1.83.72-2.96.72a5.13 5.13 0 0 1-4.05-1.83A7 7 0 0 1 0 31.41c0-2.15.46-4.14 1.37-5.98a12.2 12.2 0 0 1 3.77-4.5c1.6-1.17 3.39-1.86 5.37-2.07.52-5.2 1.49-9.64 2.93-13.33C14.87 1.84 16.76 0 19.1 0c1.15 0 2.11.52 2.88 1.57.76 1.04 1.14 2.63 1.14 4.74 0 3-.73 6.52-2.21 10.54a78.2 78.2 0 0 1-5.92 12.38c.1 1.56.34 2.67.7 3.34.36.67.83 1 1.4 1 .72 0 1.46-.31 2.2-.96.76-.64 1.77-1.71 3.03-3.22.32-.37.68-.56 1.09-.56ZM18.66 3.94c-.5 0-1.02.9-1.53 2.72a49.47 49.47 0 0 0-1.3 7.1c-.37 2.91-.63 5.97-.8 9.16 3.02-6.54 4.52-11.8 4.52-15.76 0-1.02-.09-1.81-.26-2.37-.18-.57-.39-.85-.63-.85Zm-11.6 30c.51 0 1.02-.2 1.53-.62A11.8 11.8 0 0 0 10.51 31a26.8 26.8 0 0 1-.4-4.86c0-.65.03-1.7.08-3.14a6.75 6.75 0 0 0-3.68 2.96A9.1 9.1 0 0 0 5.04 31c0 1.96.67 2.94 2.01 2.94Z"></path><path d="M35.7 30.04c.34 0 .62.16.82.48.2.32.3.76.3 1.33 0 .96-.23 1.8-.68 2.5a7.84 7.84 0 0 1-2.96 2.68 9.27 9.27 0 0 1-4.37.97c-2.58 0-4.58-.77-6-2.31-1.43-1.54-2.14-3.63-2.14-6.26 0-1.84.39-3.57 1.17-5.16a9.55 9.55 0 0 1 3.24-3.8 8.17 8.17 0 0 1 4.7-1.41c1.55 0 2.8.46 3.74 1.39a5.03 5.03 0 0 1 1.4 3.76 6.5 6.5 0 0 1-1.99 4.76c-1.33 1.33-3.59 2.38-6.78 3.16.64 1.23 1.73 1.85 3.26 1.85 1.1 0 2-.26 2.72-.77.71-.5 1.54-1.36 2.48-2.57.32-.4.68-.6 1.08-.6ZM29.08 23c-1 0-1.84.58-2.52 1.73a8.05 8.05 0 0 0-1.03 4.18V29a9.16 9.16 0 0 0 3.75-1.69c.91-.75 1.37-1.62 1.37-2.61 0-.5-.14-.92-.42-1.23-.29-.3-.67-.46-1.15-.46ZM69.94 25.45c.35 0 .62.18.8.53.2.35.29.79.29 1.32 0 .67-.1 1.19-.29 1.55-.18.36-.48.61-.88.75-1.61.56-3.39.88-5.32.96a10.42 10.42 0 0 1-3.04 5.39A7.15 7.15 0 0 1 56.56 38c-2.71 0-4.68-1.03-5.92-3.1-1.23-2.06-1.85-5.05-1.85-8.96 0-3.46.43-7.22 1.29-11.28a35.21 35.21 0 0 1 3.76-10.38C55.5 1.43 57.46 0 59.74 0a3.5 3.5 0 0 1 2.99 1.59 6.96 6.96 0 0 1 1.12 4.12c0 2.2-.41 4.38-1.24 6.55a25.71 25.71 0 0 1-4.15 6.84c1.8.13 3.26.88 4.39 2.23a9.16 9.16 0 0 1 2.01 5c1.26-.07 2.77-.34 4.51-.8.16-.05.35-.08.57-.08ZM58.82 3.98c-.54 0-1.12.8-1.75 2.4a38.43 38.43 0 0 0-1.76 6.49 81.6 81.6 0 0 0-1.2 8.96c1.77-3.24 3.18-6.1 4.25-8.58a17.13 17.13 0 0 0 1.59-6.62c0-.85-.1-1.51-.3-1.97-.2-.45-.48-.68-.83-.68Zm-2.1 29.76c.84 0 1.57-.35 2.22-1.05a5.7 5.7 0 0 0 1.29-3.01 5.55 5.55 0 0 1-1.91-2.22 6.54 6.54 0 0 1-.5-4.42h-.13c-1.1 0-2.02.54-2.76 1.63a7.64 7.64 0 0 0-1.1 4.36c0 1.53.28 2.7.86 3.5.58.8 1.25 1.2 2.03 1.2Z"></path><path d="M85.53 28.83c.35 0 .62.16.82.48.2.33.3.77.3 1.33a3.7 3.7 0 0 1-.76 2.5c-1 1.2-2.4 2.31-4.2 3.33A11.7 11.7 0 0 1 75.85 38c-2.82 0-5-.76-6.57-2.3-1.55-1.52-2.33-3.61-2.33-6.27 0-1.84.39-3.57 1.16-5.16a9.55 9.55 0 0 1 3.25-3.8 8.17 8.17 0 0 1 4.7-1.41c1.55 0 2.8.46 3.74 1.39a5.03 5.03 0 0 1 1.4 3.76 6.5 6.5 0 0 1-1.99 4.76c-1.33 1.33-3.57 2.38-6.74 3.16.67 1.23 1.94 1.85 3.82 1.85 1.21 0 2.59-.42 4.13-1.27a13.63 13.63 0 0 0 4.01-3.32c.32-.37.69-.56 1.09-.56ZM75.38 23c-1 0-1.84.58-2.52 1.73a8.05 8.05 0 0 0-1.03 4.18V29a9.16 9.16 0 0 0 3.75-1.69c.91-.75 1.37-1.62 1.37-2.61 0-.5-.14-.92-.43-1.23-.28-.3-.66-.46-1.14-.46Z"></path><path d="M104.83 25.45c.35 0 .61.18.8.53.19.35.28.79.28 1.32 0 .67-.09 1.19-.28 1.55-.19.36-.48.61-.88.75-1.62.56-3.39.88-5.32.96a10.42 10.42 0 0 1-3.04 5.39A7.15 7.15 0 0 1 91.45 38c-2.71 0-4.69-1.03-5.92-3.1-1.24-2.06-1.85-5.05-1.85-8.96 0-3.46.43-7.22 1.28-11.28a35.21 35.21 0 0 1 3.77-10.38C90.38 1.43 92.35 0 94.63 0a3.5 3.5 0 0 1 2.98 1.59 6.96 6.96 0 0 1 1.13 4.12c0 2.2-.41 4.38-1.25 6.55a25.71 25.71 0 0 1-4.15 6.84c1.8.13 3.27.88 4.4 2.23a9.16 9.16 0 0 1 2.01 5c1.26-.07 2.77-.34 4.51-.8.16-.05.35-.08.57-.08ZM93.7 3.98c-.54 0-1.12.8-1.76 2.4a38.43 38.43 0 0 0-1.75 6.49 81.6 81.6 0 0 0-1.2 8.96c1.77-3.24 3.18-6.1 4.24-8.58a17.13 17.13 0 0 0 1.6-6.62c0-.85-.1-1.51-.3-1.97-.2-.45-.48-.68-.83-.68Zm-2.1 29.76c.83 0 1.57-.35 2.22-1.05a5.7 5.7 0 0 0 1.29-3.01 5.55 5.55 0 0 1-1.92-2.22 6.54 6.54 0 0 1-.5-4.42h-.12c-1.1 0-2.02.54-2.76 1.63a7.64 7.64 0 0 0-1.1 4.36c0 1.53.28 2.7.86 3.5.58.8 1.25 1.2 2.03 1.2Z"></path><path d="M116.87 30.04c.35 0 .63.16.83.48.2.32.3.76.3 1.33 0 .96-.23 1.8-.68 2.5a7.84 7.84 0 0 1-2.97 2.68 9.27 9.27 0 0 1-4.37.97c-2.58 0-4.58-.77-6-2.31s-2.14-3.63-2.14-6.26c0-1.84.4-3.57 1.17-5.16a9.55 9.55 0 0 1 3.25-3.8 8.17 8.17 0 0 1 4.69-1.41c1.56 0 2.8.46 3.75 1.39a5.03 5.03 0 0 1 1.4 3.76 6.5 6.5 0 0 1-1.99 4.76c-1.33 1.33-3.59 2.38-6.79 3.16.65 1.23 1.74 1.85 3.27 1.85 1.1 0 2-.26 2.72-.77.7-.5 1.53-1.36 2.47-2.57.33-.4.69-.6 1.1-.6Zm-6.6-7.04c-1 0-1.84.58-2.52 1.73a8.05 8.05 0 0 0-1.03 4.18V29a9.16 9.16 0 0 0 3.75-1.69c.91-.75 1.37-1.62 1.37-2.61 0-.5-.14-.92-.43-1.23-.28-.3-.66-.46-1.15-.46ZM76.89 9.6a1.26 1.26 0 0 1 2.37.8l-.04.15-1.56 3.77a1.26 1.26 0 0 1-2.37-.82l.04-.14L76.9 9.6ZM110.88 9.6a1.26 1.26 0 0 1 2.38.8l-.05.15-1.55 3.77a1.26 1.26 0 0 1-2.38-.82l.05-.14 1.55-3.77Z"></path></g></svg>