<svg xmlns="http://www.w3.org/2000/svg" width="147" height="26" viewBox="0 0 147 26"><path d="M36.53 26V0h15.85v4.34H40.93v6.48h9.26v4.36h-9.26V26h-4.4Zm14.66 0 8.3-26h6.46l8.31 26h-4.55l-7.5-23.33h.96L55.74 26H51.2Zm4.63-5.64V16.3h13.83v4.06H55.82ZM75.27 26V0H85.7a8.2 8.2 0 0 1 4.4 1.06c1.13.7 1.98 1.6 2.54 2.7a7.4 7.4 0 0 1 .82 3.4 6.26 6.26 0 0 1-1.03 3.64 5.05 5.05 0 0 1-2.8 2v-.88a6.16 6.16 0 0 1 3.76 2.32 6.65 6.65 0 0 1 1.3 4.03 8.7 8.7 0 0 1-.9 4.05 6.38 6.38 0 0 1-2.66 2.71 9 9 0 0 1-4.37.97h-11.5Zm4.45-4.1h6.5c.77 0 1.46-.15 2.05-.46a3.47 3.47 0 0 0 1.97-3.3c0-.7-.16-1.33-.46-1.88-.3-.55-.75-1-1.34-1.32a4.25 4.25 0 0 0-2.1-.48h-6.62v7.44Zm0-11.52h5.92c.63 0 1.2-.11 1.7-.36.51-.22.91-.59 1.2-1.06.3-.46.44-1.05.44-1.75 0-.9-.3-1.65-.88-2.24a3.3 3.3 0 0 0-2.46-.9h-5.92v6.31ZM96.06 26V0h10.88a17.17 17.17 0 0 1 2.11.14 8.1 8.1 0 0 1 3.77 1.5 6.98 6.98 0 0 1 2.21 2.92c.48 1.17.72 2.48.72 3.9a9.17 9.17 0 0 1-1.62 5.48c-1.09 1.5-2.75 2.46-5 2.82l-1.87.17h-6.8V26h-4.4Zm15.12 0-5.19-10.59 4.48-.97L116.18 26h-5Zm-10.72-13.15h6.3a7.23 7.23 0 0 0 1.66-.18 3.4 3.4 0 0 0 1.72-.96c.42-.45.72-.97.9-1.54.34-1.11.34-2.3 0-3.41a3.42 3.42 0 0 0-2.6-2.5 5.02 5.02 0 0 0-.86-.15l-.82-.04h-6.3v8.78ZM118.29 26V0h4.4v26h-4.4Zm7.6 0V0h4.4v12.06L140.8 0h5.42L134.9 12.75 147 26h-5.6l-11.11-12.13V26h-4.4ZM25.15.05a5.68 5.68 0 0 1 5.71 5.64 5.68 5.68 0 0 1-5.71 5.64H5.7A5.68 5.68 0 0 1 0 5.69 5.68 5.68 0 0 1 5.71.05h19.44Zm0 3.38H5.7A2.27 2.27 0 0 0 3.43 5.7 2.27 2.27 0 0 0 5.7 7.94h19.44a2.27 2.27 0 0 0 2.28-2.25 2.27 2.27 0 0 0-2.28-2.26Zm-.58 10.16a6.25 6.25 0 0 1 6.3 6.2c0 3.43-2.82 6.21-6.3 6.21H6.3A6.25 6.25 0 0 1 0 19.8c0-3.43 2.81-6.21 6.29-6.21h18.28Zm0 3.38H6.3a2.84 2.84 0 0 0-2.86 2.82 2.84 2.84 0 0 0 2.86 2.82h18.28c1.03 0 1.97-.53 2.48-1.4.5-.88.5-1.95 0-2.83a2.86 2.86 0 0 0-2.48-1.4Z" fill="#242627" fill-rule="nonzero"></path></svg>