<?xml version="1.0" encoding="UTF-8"?> <svg xmlns="http://www.w3.org/2000/svg" height="70" viewBox="0 0 73 70" width="73"><path d="m36.5876663.06785956 11.9386431 6.89620685.0046906.00293359.062.043.0429097.03766535c.0298187.02933472.0572063.06465062.0800695.10421386.0439387.0768169.0666656.16302758.0666656.25135944l-.0006448 27.30476135 23.6354305 13.6538655c.0752389.0430423.1392531.1051328.1851339.184441.0448653.0767696.0681288.1643401.0681288.2527414v13.7969182c0 .1811229-.0963774.3472908-.2525752.4370215l-11.9398222 6.8976148-.0082958.0043976-.011.005-.0194966.0112326-.0225034.0087674.026-.013.016-.007.009-.005-.025.012-.039.018-.0604893.0201114c-.0228544.0055784-.0460055.0095433-.069273.0118945-.0162964.0020999-.0335905.0029941-.0510923.0029941-.0905389 0-.1763127-.023826-.2541444-.0667129l-23.634001-13.6542871-23.6357189 13.6538234c-.077294.0447093-.1640603.0670639-.251016.0670639l-.0159918-.000252c-.0816142-.0025728-.1628939-.0248434-.2361608-.0668119l-11.94352806-6.8995756c-.15543658-.089376-.25258444-.2564703-.25258444-.4365177v-13.797587c0-.1884022.10374352-.3524988.25708883-.4393511l23.63191117-13.652792.0001169-27.29039241c-.0023865-.09020508.0193454-.1821882.0678044-.26604337.0439515-.07592997.1076054-.1389776.1833838-.18323219l11.942677-6.89947247c.1561036-.09047941.3485807-.09047941.5046842 0zm-35.57862384 49.60431894v12.633108l10.93496334 6.3172017v-12.633108zm70.65301174.00058-10.9355075 6.3170377v12.6330785l10.9355075-6.3177024zm-35.3259722-7.1909664-23.3821855 13.5062887-.0015155 12.6337762 34.316619-19.824857zm11.9422768 6.8996319-10.9345626 6.3166001 22.3732038 12.9229759v-12.632zm-24.3912258-13.5073399-22.37356307 12.9248794 4.48643007 2.5910365 6.447 3.725 11.441-6.609zm12.951867-6.8990841v12.633l11.6831207 6.7476043 8.3618793 4.8313957 3.3385048 1.9286969 10.9350437-6.317028zm-11.9421024-20.69758722-.0014419 39.64761452 10.9335443-6.3160273.0019913-13.5081301.0000087-.0058699v-13.501zm22.8766731-.00040082-10.9345707 6.31598804v13.217l10.9345707 6.3161264zm-11.4374887-7.18917503-10.9363398 6.31567561 10.9363398 6.31628186 10.9348243-6.31628186z" transform="matrix(1 0 0 -1 0 70)"></path></svg> 