<svg xmlns="http://www.w3.org/2000/svg" width="141" height="30" viewBox="0 0 141 30"><path d="M8.12 30c8.69 0 13.95-3.43 13.95-10.7V.65H5.76V5.4h10.21v13.74c0 3.46-3.16 5.67-9.18 5.67-2.22 0-4.5-.3-6.79-1.03v5.03C2.21 29.54 5 30 8.12 30Zm35.1-.11c10.37 0 16.97-5.9 16.97-14.97C60.19 5.9 53.59 0 43.23 0 32.86 0 26.26 5.9 26.26 14.92c0 9.06 6.6 14.97 16.97 14.97Zm0-5.03c-6.59 0-10.86-3.88-10.86-9.94 0-6.05 4.27-9.97 10.87-9.97s10.86 3.92 10.86 9.97c0 6.06-4.27 9.94-10.86 9.94ZM88.6 29.2v-4.95H70.67V.65h-6.1V29.2H88.6Zm10.29 0V.65h-6.1V29.2h6.1Zm31.37 0v-4.95h-19.94V17.1h17.58v-4.8H110.3V5.6h19.64V.66h-25.73V29.2h26.03Zm10.75 0v-6.1h-6.48v6.1H141Z" fill="#242627" fill-rule="nonzero"></path></svg>