<svg xmlns="http://www.w3.org/2000/svg" width="218" height="40" viewBox="0 0 218 40"><g fill="none" fill-rule="evenodd"><g stroke-linecap="round" stroke-linejoin="round" stroke="#242627" stroke-width="1.47"><path d="M30.12 1v38H1V14.04zM59.25 39V14.04L30.12 1"></path><path d="M53.4 39V24.07l-17.42-7.8V39"></path></g><path d="M74.63 33.41v-3.65l2-1.78 3.44 5.43h3.2l-4.8-7.28 4.71-4.99h-3.3l-5.25 5.58v-5.58h-2.67v12.27h2.67Zm16.1.22c1.32 0 2.46-.24 3.4-.7a4.83 4.83 0 0 0 2.16-2.11c.5-.94.76-2.12.76-3.54a7.5 7.5 0 0 0-.76-3.57 4.8 4.8 0 0 0-2.16-2.1 7.7 7.7 0 0 0-3.4-.68c-1.31 0-2.44.23-3.38.69a4.78 4.78 0 0 0-2.18 2.1 7.5 7.5 0 0 0-.75 3.56c0 1.42.25 2.6.75 3.54s1.23 1.64 2.18 2.1c.94.47 2.07.7 3.37.7Zm0-2.19c-.58 0-1.09-.08-1.53-.25a2.79 2.79 0 0 1-1.12-.75c-.3-.33-.52-.74-.67-1.22a5.59 5.59 0 0 1-.22-1.66v-.55c0-.63.07-1.2.22-1.68a2.83 2.83 0 0 1 1.79-1.97c.44-.17.95-.25 1.52-.25.59 0 1.1.08 1.55.25.44.17.81.42 1.11.74.3.33.53.74.68 1.23.16.49.24 1.05.24 1.68v.55c0 .62-.08 1.18-.24 1.66-.15.48-.38.89-.68 1.22-.3.34-.67.59-1.11.75-.44.17-.96.25-1.55.25Zm11.02 1.97v-7.8h.09a8.84 8.84 0 0 0 .66 1.02l5.07 6.78h2.46V21.14h-2.53v7.75h-.1c-.03-.09-.1-.2-.19-.34a14.82 14.82 0 0 0-.57-.79l-4.96-6.62h-2.46v12.27h2.53Zm15.8.22a8.6 8.6 0 0 0 2.72-.4 3.87 3.87 0 0 0 1.86-1.25c.46-.57.69-1.33.69-2.27a2.9 2.9 0 0 0-1.19-2.4c-.36-.27-.76-.5-1.22-.68-.45-.17-.92-.33-1.4-.46l-1.4-.36c-.46-.1-.87-.23-1.23-.36-.37-.14-.65-.3-.86-.49a.9.9 0 0 1-.32-.7c0-.25.1-.47.28-.66.19-.18.46-.32.8-.42a4.99 4.99 0 0 1 2.51.06c.35.13.62.3.81.53.2.23.29.5.29.83v.14h2.6v-.22a3.2 3.2 0 0 0-.38-1.6 3.26 3.26 0 0 0-1.07-1.13c-.46-.3-.98-.52-1.58-.65a9.1 9.1 0 0 0-3.9 0c-.6.13-1.15.34-1.62.63-.46.29-.82.65-1.08 1.1-.26.43-.39.96-.39 1.56a2.92 2.92 0 0 0 1.19 2.47c.36.26.76.49 1.22.67.45.19.92.34 1.4.47l1.4.36c.46.12.87.26 1.23.4.37.14.65.31.86.52.21.2.32.46.32.78a1.01 1.01 0 0 1-.4.86c-.14.1-.32.2-.53.28-.2.08-.45.14-.72.18a6.1 6.1 0 0 1-2.34-.14c-.4-.13-.72-.32-.92-.59a1.5 1.5 0 0 1-.32-.96v-.16c0-.06 0-.11.02-.15h-2.66a.5.5 0 0 0-.02.16v.18c0 .7.14 1.28.42 1.77.29.48.68.88 1.17 1.2.5.3 1.07.54 1.72.68.64.14 1.33.22 2.04.22Zm13.13-.22V23.38h3.97v-2.24h-10.61v2.24h3.95v10.03h2.7Zm8.46 0v-4.47h3.43l2.17 4.47h2.97l-2.52-4.92c.69-.32 1.2-.79 1.57-1.4.36-.61.53-1.32.53-2.12 0-.75-.14-1.41-.44-2a3.15 3.15 0 0 0-1.36-1.34 4.8 4.8 0 0 0-2.27-.49h-6.75v12.27h2.67Zm3.72-6.58h-3.72v-3.52h3.72a2 2 0 0 1 .93.2c.25.13.45.32.58.58a2 2 0 0 1 .2.92c0 .56-.15 1-.45 1.33-.3.33-.72.5-1.26.5Zm12.05 6.8c1.14 0 2.11-.18 2.92-.54.8-.36 1.43-.9 1.86-1.62.43-.72.64-1.62.64-2.69v-7.64h-2.7v7.57c0 .88-.23 1.56-.7 2.03-.47.47-1.15.7-2.02.7-.87 0-1.54-.23-2.01-.7-.47-.47-.7-1.15-.7-2.03v-7.57h-2.7v7.64c0 1.07.22 1.97.65 2.7a3.98 3.98 0 0 0 1.86 1.61c.8.36 1.77.54 2.9.54Zm10.78-.22v-3.65l1.99-1.78 3.45 5.43h3.2l-4.8-7.28 4.7-4.99h-3.3l-5.24 5.58v-5.58H163v12.27h2.68Zm16.07 0V23.38h3.97v-2.24H175.1v2.24h3.95v10.03h2.7Zm8.46 0V21.14h-2.68v12.27h2.68Zm8.47.22c1.33 0 2.47-.24 3.4-.7a4.83 4.83 0 0 0 2.17-2.11c.5-.94.76-2.12.76-3.54a7.5 7.5 0 0 0-.76-3.57 4.8 4.8 0 0 0-2.16-2.1 7.7 7.7 0 0 0-3.4-.68c-1.31 0-2.44.23-3.38.69a4.78 4.78 0 0 0-2.18 2.1 7.5 7.5 0 0 0-.75 3.56c0 1.42.25 2.6.75 3.54s1.23 1.64 2.18 2.1c.94.47 2.07.7 3.37.7Zm0-2.19c-.57 0-1.08-.08-1.52-.25a2.79 2.79 0 0 1-1.12-.75c-.3-.33-.52-.74-.67-1.22a5.59 5.59 0 0 1-.22-1.66v-.55c0-.63.07-1.2.22-1.68a2.83 2.83 0 0 1 1.79-1.97c.44-.17.95-.25 1.52-.25.6 0 1.1.08 1.55.25.44.17.81.42 1.11.74.3.33.53.74.68 1.23.16.49.24 1.05.24 1.68v.55c0 .62-.08 1.18-.24 1.66-.15.48-.38.89-.68 1.22-.3.34-.67.59-1.11.75-.44.17-.96.25-1.55.25Zm11.03 1.97v-7.8h.1a8.84 8.84 0 0 0 .66 1.02l5.06 6.78H218V21.14h-2.53v7.75h-.1c-.03-.09-.1-.2-.19-.34a14.81 14.81 0 0 0-.57-.79l-4.96-6.62h-2.46v12.27h2.53Z" fill="#242627" fill-rule="nonzero"></path></g></svg>