<?xml version="1.0" encoding="UTF-8"?> <svg xmlns="http://www.w3.org/2000/svg" height="24" viewBox="0 0 105 24" width="105"><path d="m108.814453 127.144531c-1.875 0-3.554687-.449218-5.039062-1.347656-1.484375-.898437-2.651368-2.185059-3.500977-3.859863-.8496093-1.674805-1.274414-3.669434-1.274414-5.983887 0-2.333984.4272461-4.338379 1.281738-6.013184.854492-1.674804 2.021485-2.961425 3.500977-3.859863 1.479492-.898437 3.156738-1.347656 5.031738-1.347656 1.152344 0 2.233887.166016 3.244629.498047s1.916504.815429 2.717285 1.450195 1.462402 1.411133 1.984863 2.329102c.522461.917968.871582 1.958007 1.047364 3.120117h-3.310547c-.126953-.712891-.36377-1.340332-.710449-1.882324-.34668-.541993-.771485-1.000977-1.274414-1.376954-.50293-.375976-1.064454-.659179-1.684571-.849609s-1.276855-.285644-1.970215-.285644c-1.25 0-2.375488.314941-3.376464.944824-1.000977.629883-1.78711 1.557617-2.358399 2.783203s-.856933 2.722168-.856933 4.489746c0 1.777344.288085 3.273926.864257 4.489746s1.362305 2.136231 2.358399 2.761231 2.114258.9375 3.354492.9375c.693359 0 1.347656-.092774 1.962891-.278321.615234-.185547 1.176757-.463867 1.68457-.834961.507812-.371093.935058-.822754 1.281738-1.35498.34668-.532227.588379-1.149902.725098-1.853027h3.310547c-.166016 1.083984-.50293 2.072753-1.010742 2.966308-.507813.893555-1.157227 1.665039-1.948243 2.314453-.791015.649414-1.694336 1.152344-2.709961 1.508789-1.015625.356446-2.124023.534668-3.325195.534668zm18.325195-16.875c1.542969 0 2.885743.351563 4.028321 1.054688s2.03125 1.691894 2.666015 2.966308c.634766 1.274414.952149 2.761231.952149 4.46045 0 1.679687-.317383 3.154296-.952149 4.423828-.634765 1.269531-1.523437 2.255859-2.666015 2.958984s-2.485352 1.054688-4.028321 1.054688c-1.533203 0-2.873535-.351563-4.020996-1.054688s-2.036133-1.689453-2.666015-2.958984c-.629883-1.269532-.944825-2.744141-.944825-4.423828 0-1.699219.314942-3.186036.944825-4.46045.629882-1.274414 1.518554-2.263183 2.666015-2.966308s2.487793-1.054688 4.020996-1.054688zm9.931641 16.582031v-16.376953h3.164063v16.376953zm1.59668-18.896484c-.556641 0-1.030274-.185547-1.420899-.556641-.390625-.371093-.585937-.815429-.585937-1.333007 0-.527344.195312-.976563.585937-1.347657.390625-.371093.864258-.55664 1.420899-.55664.546875 0 1.018066.185547 1.413574.55664.395508.371094.593262.820313.593262 1.347657 0 .517578-.197754.961914-.593262 1.333007-.395508.371094-.866699.556641-1.413574.556641zm10.532226-3.955078c.654297 0 1.210938.053711 1.669922.161133.458985.107422.795899.200195 1.010742.27832l-.761718 2.578125c-.146485-.048828-.334473-.102539-.563965-.161133-.229492-.058593-.515137-.08789-.856934-.08789-.771484 0-1.328125.192871-1.669922.578613s-.512695.944824-.512695 1.677246l-.000594 1.449586 3.560164.000609v2.563477l-3.560164-.000086.000594 13.813563h-3.164063l-.000531-13.813563-2.519.000086v-2.563477l2.519-.000609.000531-1.903687c0-1.015625.227051-1.862793.681153-2.541504.454101-.678711 1.049804-1.186524 1.787109-1.523438s1.530762-.505371 2.380371-.505371zm9.814453 0c.654297 0 1.210938.053711 1.669922.161133.458985.107422.795899.200195 1.010742.27832l-.761718 2.578125c-.146485-.048828-.334473-.102539-.563965-.161133-.229492-.058593-.515137-.08789-.856934-.08789-.771484 0-1.328125.192871-1.669922.578613-.341796.385742-.512695.944824-.512695 1.677246l-.000594 1.449586 3.560164.000609v2.563477l-3.560164-.000086.000594 13.813563h-3.164062l-.000532-13.813563-2.519.000086v-2.563477l2.519-.000609.000532-1.903687c0-1.015625.22705-1.862793.681152-2.541504.454101-.678711 1.049805-1.186524 1.787109-1.523438.737305-.336914 1.530762-.505371 2.380371-.505371zm14.267579 16.083984v-9.609375h3.164062v16.376953h-3.105469v-2.841796h-.175781c-.390625.86914-.996094 1.596679-1.816406 2.182617-.820313.585937-1.845703.874023-3.076172.864258-1.054688 0-1.984863-.229493-2.790527-.688477-.805665-.458984-1.435547-1.147461-1.889649-2.06543-.454101-.917968-.681152-2.055664-.681152-3.413086v-10.415039h3.164062v10.048828c0 1.103516.3125 1.987305.9375 2.651368.625.664062 1.430664.991211 2.416993.981445.595703 0 1.188964-.146484 1.779785-.439453.59082-.292969 1.083984-.742188 1.479492-1.347656.395508-.605469.593262-1.367188.593262-2.285157zm6.210937 6.767579v-16.376954h3.061523v2.622071h.175782c.302734-.878907.832519-1.574707 1.589355-2.087403.756836-.512695 1.61377-.769043 2.570801-.769043.195312 0 .427246.007325.695801.021973.268554.014648.48584.031738.651855.05127v3.046875c-.126953-.039063-.354004-.078125-.681152-.117188-.327149-.039062-.656738-.058594-.98877-.058594-.751953 0-1.42334.158692-2.01416.476075-.59082.317382-1.054687.751953-1.391601 1.303711-.336914.551757-.505371 1.188964-.505371 1.911621v9.975586zm12.568359-.703125c-1.171875-.69336-2.072754-1.672364-2.702636-2.937012-.629883-1.264649-.944825-2.741699-.944825-4.431153 0-1.679687.310059-3.159179.930176-4.438476s1.494141-2.277832 2.622071-2.995606c1.127929-.717773 2.453613-1.07666 3.97705-1.07666.927735 0 1.826172.151367 2.695313.454102.86914.302734 1.65039.78125 2.34375 1.435547.693359.654297 1.242676 1.503906 1.647949 2.548828.405274 1.044922.60791 2.304687.60791 3.779297v1.142578h-11.645508v-2.387696l10.004883.000001-1.479492-.000001c0-1.005859-.15625-1.103515-.46875-1.874999-.3125-.771485-.778809-1.374512-1.398926-1.809083-.620117-.43457-1.38916-.651855-2.307129-.651855-.917968 0-1.70166.219727-2.351074.65918s-1.145019 1.020508-1.486816 1.743164-.512696 1.513672-.512696 2.373047v1.625976c0 1.123047.195313 2.075196.585938 2.856446s.935058 1.376953 1.633301 1.787109c.698242.410156 1.51123.615234 2.438965.615234.605468 0 1.154785-.08789 1.647949-.263672.493164-.175781.92041-.439453 1.281738-.791015.361328-.351563.634766-.786133.820313-1.303711l3.017578.571289c-.244141.878906-.673828 1.650391-1.289063 2.314453-.615234.664063-1.38916 1.179199-2.321777 1.54541s-1.994629.549317-3.186035.549317c-1.601563 0-2.988282-.34668-4.160157-1.040039zm2.431641-17.72461 2.050781-4.160156h3.28125l-2.885742 4.160156z" fill="#fff" fill-rule="evenodd" transform="translate(-99 -104)"></path></svg> 