<?xml version="1.0" encoding="UTF-8"?> <svg xmlns="http://www.w3.org/2000/svg" height="35" viewBox="0 0 188 35" width="188"><path d="m932.05 124.9v-9.96l3.51 9.97h3.4l3.48-9.94v9.94h3.91v-15.91h-4.75l-4.3 11.08-4.37-11.07h-4.8v15.9h3.92zm23.09 0 1-2.91h6.08l1 2.92h4.18l-5.94-15.91h-4.51l-5.94 15.9zm6.07-5.86h-4.05l2.04-5.89 2.01 5.9zm18.23 6c2.06 0 3.77-.54 5.12-1.61 1.362126-1.090298 2.293917-2.627929 2.63-4.34h-4.15c-.605635 1.478655-2.073596 2.418631-3.67 2.35-1.063049.036217-2.083985-.417123-2.77-1.23-.744933-.941142-1.121733-2.121308-1.06-3.32 0-1.39.36-2.5 1.06-3.33.683125-.817829 1.704984-1.275267 2.77-1.24 1.605567-.06999 3.07899.885527 3.67 2.38h4.15c-.330565-1.716969-1.263198-3.259537-2.63-4.35-1.469972-1.110974-3.278746-1.679749-5.12-1.61-1.57 0-2.96.34-4.15 1.03-1.180198.676057-2.13894 1.679957-2.76 2.89-.664302 1.30949-.997361 2.761901-.97 4.23 0 1.59.32 3 .97 4.24.624187 1.202662 1.582637 2.199312 2.76 2.87 1.267188.706112 2.699704 1.061652 4.15 1.03zm20.47 0c2.07 0 3.77-.54 5.12-1.61 1.36213-1.090298 2.29392-2.627929 2.63-4.34h-4.15c-.60563 1.478655-2.0736 2.418631-3.67 2.35-1.063049.036217-2.083985-.417123-2.77-1.23-.741358-.942544-1.11456-2.122573-1.05-3.32 0-1.39.35-2.5 1.05-3.33.683125-.817829 1.704984-1.275267 2.77-1.24 1.60557-.06999 3.07899.885527 3.67 2.38h4.15c-.33056-1.716969-1.2632-3.259537-2.63-4.35-1.46997-1.110974-3.27875-1.679749-5.12-1.61-1.57 0-2.95.34-4.15 1.03-1.180198.676057-2.13894 1.679957-2.76 2.89-.664302 1.30949-.997361 2.761901-.97 4.23 0 1.59.32 3 .97 4.24.622626 1.206353 1.581222 2.206627 2.76 2.88 1.267188.706112 2.699704 1.061652 4.15 1.03zm17-.13v-6.68h6.13v6.68h3.96v-16.01h-3.95v6.2h-6.14v-6.2h-3.92v16h3.92zm19.82 0v-16.01h-3.92v16h3.92zm9.75 0v-9.83l6.56 9.83h3.91v-16.01h-3.91v9.92l-6.56-9.92h-3.92v16h3.92zm19.26 0 1-2.92h6.08l1 2.92h4.18l-5.94-15.91h-4.51l-5.94 15.9h4.13zm6.07-5.87h-4.05l2.04-5.89 2.01 5.9zm-157.78-21.04v12.444l-8.762 22.556h-6.57l-8.698-22.28v-12.72h.493l11.607 27.84 11.416-27.84z" fill="#fff" transform="translate(-890 -98)"></path></svg> 