<?xml version="1.0" encoding="UTF-8"?> <svg xmlns="http://www.w3.org/2000/svg" height="76" viewBox="0 0 76 76" width="76"><path d="m56.4364336 5.42982108 9.2646682 5.34888982c.1575985.0912985.2554183.2597659.2554183.4423628l-.0005201 21.1269263 9.0219334 5.210391c.157844.0915038.2550668.2584982.2550668.4415058l.0005085 10.708843c.000551.0875983-.021444.176468-.068358.2577093-.0446255.0778087-.1087032.1418863-.1865118.1876561l-18.2986389 10.5618948.0001335 10.4181186c0 .1884305-.1016694.3524213-.2531959.4408117l-9.2784685 5.3562529c-.1574572.0917557-.3522964.0917557-.5108865 0l-18.2985826-10.5651832-9.0197686 5.2098309c-.1583896.0912941-.353077.0912941-.5114666 0l-9.27569587-5.3544512c-.17058582-.0991242-.2627983-.2809162-.25488694-.4647491l.00081801-21.1056306-9.02270961-5.2086408-.07515671-.0530691-.06126314-.0619908c-.07543305-.0902789-.11836569-.2058359-.11836569-.3274115v-10.7115934c0-.1823634.09750123-.351185.25548933-.4423667l18.29800582-10.5649277.000294-10.41497596c0-.18215946.0962352-.35143028.2543358-.44165076l9.2755254-5.35566c.0472254-.02717533.0969434-.04604222.147453-.05703822l.0198116-.00378346c.026526-.00478763.0529074-.00731065.0792048-.00780226l.0104805.00023383c.0307373-.00017958.0598349.00246533.0884586.00753357l.0563567.01337657c.0263428.0077828.0520878.01770368.0770036.02970462.0102189.00489661.0202408.01014825.0300939.01573863l18.2999821 10.56532344 9.0219277-5.20834787.0146887-.00865399c.0202541-.01079737.0413263-.02027293.0631018-.02831117l-.0777905.03696516c.0417755-.02414869.0855419-.04172121.1301016-.05303765.012311-.00318678.025116-.00589207.0380897-.00811013.0207641-.00362143.041642-.00590772.0624983-.00690585.0075624-.00024275.0160451-.00045082.0245775-.00045082.0954746.00040244.1868453.02627182.2662388.0746734zm-28.0954336 49.22617892-7.744 4.47-.510791.2959585 26.8073833 15.4783894 8.2534077-4.7673479zm-9.277 5.356-6.259 3.613-1.9970142 1.1542085 8.2560623 4.7659895 8.2560622-4.7659895zm9.786-26.484v20.243l8.256 4.767 18.5535293 10.7118882v-19.6543304l-2.5285293 1.4584422-5.9820285 3.4552782c-.0525541.0304452-.1093367.0507419-.1675288.0608903l-.0879197.0074337-.0880661-.0074337c-.0581921-.0101484-.1149747-.0304451-.1675288-.0608903l-9.2759805-5.3561692-.0742165-.0514329-.062147-.0623709c-.0189212-.0226024-.0358301-.0467784-.0505503-.0722276-.0451297-.0787125-.0682857-.165014-.0688093-.2526847l-.0001368-10.4191678-2.9060877-1.6782251zm-18.552 10.712.0001614 19.6553083 8.2548386-4.7683083v-10.121l-3.189-1.841zm55.1479376-.2944959-7.4919376 4.3234959-.921.532-.353.203v9.534l17.021662-9.8267174zm-37.6169376-10.4155041-7.898 4.559-.3567226.2069846v20.2427915l8.2547226-4.7677761zm28.3415176 5.0597341-17.5325176 10.1212659 8.2562104 4.7657134 7.7447896-4.4717134 9.7854115-5.6495148zm-.5115176-31.8387341-17.0199743 9.8263362.7649743.4416638 7.744617 4.4711873c.065182.0375896.1198464.0881619.1616293.1473271.0598402.0850015.0939333.1876988.0939333.2947026v10.7128514c0 .182307-.0968184.3512242-.2554357.4418627l-9.0205897 5.2075932-.0001542 9.5314757 17.531-10.122zm-27.3178949 15.7715212-26.80856726 15.4778637 17.02046216 9.8256151.0005021-9.8258024c0-.1830569.0972167-.3506006.2544182-.441612l9.2690133-5.3514919c.0279157-.0168209.0575674-.0310456.0886192-.0423383.0221743-.0070926.0426783-.0131017.0634081-.0177897l.0129162-.0033724c.0046457-.0009039.0093138-.0017447.0140034-.0025214l-.0269196.0058938c.0197319-.0042875.0395491-.0074266.0593955-.0093888l.0236459-.0026306c.0091607-.0004909.018385-.0007395.0276668-.0007395l.0153309.0007932.0123305.000337c.008105.0004088.016204.0010139.0242899.0018152l-.0519513-.0029454c.034605 0 .0688861.0034006.1024084.0101397.0069204.001796.0139732.0033795.0209994.0051159.0464784.0109871.0910766.0288127.132843.0529313l9.0200801 5.2086063 6.722-3.881 1.5341051-.8858769zm37.6156986 11.005128-.0008037 9.5323508 8.255 4.766.0005892-9.5310035zm-9.2757723-26.77802624v30.95452534l8.2538155 4.7659969v-30.9545253zm-28.8511479 5.35646614-8.1868835 4.7259109-18.62144061 10.7506036v9.5325508l26.80832411-15.4765146zm1.0201165-.0010891.0001376 9.5330931 5.6128624 3.2399069 11.9198152 6.8819109-.0003786-9.5331188-9.0205896-5.2075932-.009847-.0061989-.313-.181zm.0002517-10.71157838-.0002517 9.53157838 8.767 5.062 8.255-4.766zm-1.0204323.00024397-8.2556043 4.76707871-.0002151 9.5312557 8.2558194-4.764177z" transform="matrix(1 0 0 -1 0 76)"></path></svg> 