<?xml version="1.0" encoding="UTF-8"?> <svg xmlns="http://www.w3.org/2000/svg" height="79" viewBox="0 0 68 79" width="68"><path d="m56.2962458 65.4542849-.0340665-.0025454c-.0436579-.0042942-.0866115-.0139942-.1278102-.0288182-.0160017-.0064256-.0253065-.0102739-.0345002-.014392-.0222674-.009241-.0436601-.0204832-.0642608-.0331976l-10.3506081-5.9753317.0019916 11.9656206c0 .188612-.1005178.3636711-.2642827.4579771l-11.1538462 6.4368069c-.0281788.0165775-.0580299.030621-.0892393.0418172l.0862896-.0392744c-.0408971.0235588-.084524.0414099-.1296825.0532625-.0153177.0035387-.0311266.0069544-.0471807.0096477-.0140626.0027885-.0277306.0045097-.0414647.0056943-.0148388.0009123-.0307323.0016273-.0467929.0016273-.0057597 0-.0115759 0-.0173921-.0005647-.0568126-.0018192-.1067385-.0114456-.1536367-.0274628-.0063204-.0023832-.0129269-.0047612-.0194858-.0072722-.0164439-.0061743-.0323429-.013258-.0478-.0210771-.008784-.0044375-.0176028-.0091913-.0262945-.0142083l-33.47079701-19.3188385c-.16353138-.0948663-.26415748-.2693525-.26415748-.4579557v-12.8780963c0-.1977439.1080814-.3699385.2683447-.4609286l10.35742669-5.979775-10.36259368-5.9817566c-.16355841-.0943606-.26440632-.2686656-.26440632-.4573868l.00153991-12.8798971.00196841-.0452635c.00387627-.0453689.01367598-.0906728.02970311-.1347754.04260662-.1174069.12526134-.2150541.23138374-.276856l33.47127203-19.32026845c.1632148-.09439487.3650245-.09439487.5287043 0l11.1562638 6.43986869c.1729724.09924488.2686097.28139206.2656209.46748697l-.0014562 11.95484819 10.3652501-5.9832035c.1637679-.0940999.3648769-.0940999.5286448 0l11.1570191 6.4404513.0338573.0221647c.0141562.0096776.0278884.0200799.0411356.0311905l-.0749929-.0533552c.1401778.0812319.2293159.2171256.2557979.3652578.005097.0313838.0078804.0620185.008058.0928605v38.6377065c0 .1886761-.1007338.3634945-.2643596.4578326l-11.1414256 6.4304998c-.0810073.0507662-.1767279.0801949-.2792833.0803656zm-11.6669498-6.0536683-10.100296 5.8283834v5.831l.0010827 5.8290161 10.0992133-5.8289018zm-32.414296-32.1976166v17.875l.0011937 6.9688452c-.0000855.2918462-.2366865.5290119-.528852.5290119l-.0176146-.0007632-.0537271-.0060939-.0208372-.0012994-.0114407-.0025325-.0775633-.021435c-.0298204-.011153-.0573104-.0239304-.0836388-.0389915l-10.36352-5.9827416.0000441 11.6594373 32.4129816 18.7072899-.0000257-11.6567272-10.8928213-6.2881422c-.1633799-.0947059-.2641082-.269062-.2641082-.4584739l-.0000705-25.4523839zm11.157 19.318.0008631 11.6588965 10.0992484 5.8304869-.0001115-11.6583834zm33.2794589 5.1189927.0662672.0656593c.020222.0239447.0385868.050028.054754.0781577.0458366.0794145.0698208.1700216.0703538.2616947v11.9633395l10.0989645-5.8287036v-37.4159493l-10.0987984 5.827809.000424 12.5758879c0 .1886029-.100805.3632697-.2643229.4575712l-2.0441011 1.1785409-20.0065712 11.5485027.001599 11.6579402 10.3635509-5.9826281 11.1564317-6.4389669c.1968049-.1133233.436211-.0859159.6014485.0511448zm-.8666252 1.32282-9.5696721 5.5225712 9.5696721 5.5235425zm-21.7848337-13.1858127-10.1 5.83 1.584.914 8.5162983 4.9151803 10.0987017-5.8301803zm-22.8416041.3059781-9.57105304 5.5232237 9.57105304 5.5244438zm23.3706041-12.8789781v11.657l10.098 5.83.001-5.829-.001-5.83zm-1.058 0-10.1 5.829.001 11.657 10.099-5.83zm22.314668-.0005076-10.0986198 5.8282959-.0010482 5.8302117.001 5.827 2.035-1.174 8.0628623-4.6536863.0001377-6.7453137zm-54.72656833-6.4397762-.00150715 11.6584513 10.10041978 5.829717v-11.6584512l-5.5980123-3.2324333zm21.78420483-.3041875-10.0987906 5.8279353 4.5004861 2.597536 5.5985463 3.232867 10.0993605-5.8290906-2.4189068-1.3967764zm11.1566823-19.3195596-32.4120341 18.708039 10.0980473 5.8289919 10.8931848-6.2866443c.1633543-.0943483.3651175-.0943483.5287508 0l22.0487801 12.7258691 10.1002504-5.8283481-10.3587678-5.9785311-11.1623738-6.4431461c-.2530999-.1461959-.339447-.4695618-.1932907-.7223052.0463422-.0803662.112885-.1470277.1932907-.1932908l.1221755-.0716035 10.2394472-5.91068282zm22.314319 12.8792795-10.0991961 5.8291758 10.0991961 5.8288557 10.0997295-5.8288557zm-11.6864704-6.13369352-9.5698707 5.52272762 9.5698707 5.5243119z" transform="matrix(1 0 0 -1 0 78.3336)"></path></svg> 