<?xml version="1.0" encoding="UTF-8"?> <svg xmlns="http://www.w3.org/2000/svg" height="32" viewBox="0 0 162 32" width="162"><path d="m270.957404 99.0001399h10.346576c-1.098657.5333287-2.111982 1.2373221-3.007974 2.1333151l-13.055886 13.055885c-1.456468-1.773056-2.248656-3.998729-2.24012-6.293278v-.938658zm.874659 31.9997911h-.874659l-7.957264-7.957335v-10.346576c.533329 1.098657 1.237322 2.111982 2.133315 3.007974l13.055885 13.055886c-1.773056 1.456468-3.998729 2.248656-6.293278 2.240051zm15.210533-.000071h-10.346576c1.098657-.533329 2.111982-1.237322 3.007974-2.133315l13.055886-13.055885c1.456468 1.773056 2.248656 3.998729 2.24012 6.293278v.938658zm5.823949-16.703854-13.055885-13.055886c1.773056-1.4564679 3.998729-2.2486564 6.293278-2.2400506h.938658l7.957264 7.9573346v10.346576c-.537256-1.115276-1.25844-2.132144-2.133315-3.007974zm12.181227-4.842624v-2.986641h14.026544v2.986641h-5.226621v14.079877h-3.562635v-14.079877zm21.343814 14.335874c-1.311989 0-2.453312-.266664-3.402637-.810659-.945116-.522869-1.710816-1.318305-2.197314-2.282647-.530944-1.095655-.790685-2.302903-.757327-3.519969 0-1.301322.255998-2.453312.757327-3.45597.481747-.964734 1.229361-1.771564 2.154647-2.325313.927992-.554662 2.026649-.831993 3.274638-.831993.853326 0 1.642653.138666 2.36798.40533 1.497792.551792 2.673727 1.739448 3.210638 3.242639.309331.810659.458663 1.770651.458663 2.858641v.959992h-10.805239v-2.175981h9.098587l-1.653319.575995c0-.650661-.095999-1.21599-.298664-1.706652-.191998-.469329-.490662-.853326-.885325-1.109324-.436189-.275848-.945568-.413418-1.461321-.394663-.575995 0-1.066657.138666-1.471987.40533-.394663.266664-.703994.629328-.917325 1.087991-.213332.458662-.319997.981324-.319997 1.578652v1.546654c0 .693327.117332 1.279988.362663 1.781317.460139.974813 1.461916 1.576721 2.538644 1.52532.40533 0 .757327-.053333 1.077324-.170665.319998-.106666.597328-.277331.831993-.501329.234665-.213331.40533-.490662.533329-.799993l3.263971.213332c-.147877.762279-.493666 1.472249-1.002658 2.058648-.501329.586662-1.162656 1.045324-1.962649 1.365322-.799993.319997-1.727985.490662-2.773309.490662zm9.770581-.853325c-.928473-.548351-1.68001-1.351719-2.165315-2.314647-.518652-1.069151-.774631-2.246654-.74666-3.434636 0-1.311989.245331-2.463979.757327-3.466637.48601-.968655 1.241667-1.776171 2.175981-2.325313 1.020401-.575745 2.1781-.863326 3.349304-.831993 1.11999 0 2.090648.202665 2.933308.607995.831992.40533 1.49332.970658 1.983982 1.706652.490663.735993.757327 1.599986.799993 2.591977h-3.338637c-.050877-.400376-.185338-.785588-.394663-1.130657-.191999-.319997-.458663-.565328-.789327-.74666-.319997-.170665-.71466-.255997-1.141323-.255997-.554662 0-1.034658.149332-1.439988.437329-.415996.298664-.725326.725327-.959991 1.301322-.238954.662948-.351124 1.364915-.330664 2.069315 0 .799993.106666 1.493321.34133 2.079982.213332.586662.533329 1.023991.949325 1.333322.40533.298664.885326.458662 1.439988.458662.607995 0 1.11999-.191998 1.546653-.586661.415996-.383997.671994-.917325.77866-1.599986h3.338637c-.053332.981325-.319997 1.845317-.789326 2.591977-.478137.748247-1.153628 1.349914-1.951983 1.738652-.842659.426663-1.823984.629327-2.975974.629327-1.180456.029295-2.346322-.265861-3.370637-.853325zm14.165209.597328h-3.541302v-12.810555h3.487969v2.282647h.127999c.287998-.757327.74666-1.354655 1.386655-1.791985.639994-.426662 1.429321-.650661 2.378646-.650661.885325 0 1.663985.191999 2.325313.586662.661327.383997 1.173323.938658 1.535986 1.663985.362664.714661.554662 1.567987.554662 2.570645v8.149262h-3.541302v-7.519935c0-.778659-.213332-1.386654-.607995-1.83465-.431341-.460675-1.044517-.706726-1.674652-.671994-.469329 0-.895992.106665-1.258656.319997-.37333.213331-.650661.501329-.853325.895992-.213332.383997-.319998.853326-.319998 1.407988zm12.746556-.575995c-.934329-.544351-1.690315-1.348513-2.175981-2.314647-.525668-1.074681-.785401-2.259943-.757327-3.455969 0-1.333322.255998-2.485312.757327-3.477303.485666-.966134 1.241652-1.770296 2.175981-2.314647 1.021193-.57375 2.178332-.861192 3.349304-.831993 1.301322 0 2.421312.277331 3.370637.831993.934328.544351 1.690314 1.348513 2.175981 2.314647.501329.991991.757326 2.143981.757326 3.477303.028075 1.196026-.231659 2.381288-.757326 3.455969-.485667.966134-1.241653 1.770296-2.175981 2.314647-.949325.554662-2.069315.831992-3.370637.831992-1.170972.0292-2.328111-.258242-3.349304-.831992zm3.381303-1.941317c.586662 0 1.077324-.170665 1.471987-.501329.394664-.330663.703994-.789326.906659-1.365321.202665-.586661.298664-1.247989.298664-1.983983 0-.74666-.106666-1.407987-.298664-1.983982-.171775-.526394-.485516-.99516-.906659-1.354655-.416538-.333696-.938538-.507697-1.471987-.490662-.597328 0-1.098657.159998-1.49332.490662-.40533.319997-.703994.77866-.906659 1.354655-.214926.638987-.319529 1.309895-.30933 1.983982 0 .746661.106665 1.397322.30933 1.983983.202665.575995.501329 1.034658.895992 1.365321.40533.330664.906659.501329 1.493321.501329zm11.391901-14.549206v17.066518h-3.541303v-17.066518zm4.490627 16.490523c-.934328-.544351-1.690314-1.348513-2.175981-2.314647-.529352-1.073763-.792753-2.25907-.767993-3.455969 0-1.333322.255998-2.485312.767993-3.477303.485667-.966134 1.241653-1.770296 2.175981-2.314647 1.021194-.57375 2.178333-.861192 3.349304-.831993 1.301322 0 2.421312.277331 3.370637.831993.934329.544351 1.690314 1.348513 2.175981 2.314647.501329.991991.757327 2.143981.757327 3.477303.028074 1.196026-.231659 2.381288-.757327 3.455969-.485667.966134-1.241652 1.770296-2.175981 2.314647-.949325.554662-2.069315.831992-3.370637.831992-1.170971.0292-2.32811-.258242-3.349304-.831992zm4.853291-2.442646c.394663-.330663.693327-.789326.895992-1.365321.213332-.586661.309331-1.247989.309331-1.983983 0-.74666-.106666-1.407987-.309331-1.983982-.1688-.525167-.478764-.993803-.895992-1.354655-.419353-.336123-.945577-.51027-1.482654-.490662-.586661 0-1.08799.159998-1.49332.490662-.394663.319997-.703994.77866-.906659 1.354655-.211305.639614-.3123 1.310506-.298664 1.983982 0 .746661.106666 1.397322.298664 1.983983.213332.575995.511996 1.034658.906659 1.365321.40533.330664.906659.501329 1.49332.501329.597328 0 1.087991-.170665 1.482654-.501329zm12.095894 8.085263c-1.423946.080381-2.838385-.276951-4.053298-1.023991-.911334-.583844-1.555339-1.503851-1.791984-2.559978l3.285305-.426663c.232626.592485.717666 1.050145 1.322655 1.24799.362663.138665.799993.213331 1.322655.213331.767993 0 1.407987-.191998 1.919983-.565328.501329-.37333.74666-.991992.74666-1.866651v-2.346646h-.149332c-.369765.823385-1.053382 1.464756-1.89865 1.781318-.490662.202665-1.066657.298664-1.749318.298664-1.911768.072914-3.682759-1.001431-4.501294-2.730643-.506627-1.098371-.747786-2.300513-.703994-3.509302 0-1.450654.234665-2.666644.714661-3.637302 1.050909-2.42443 3.851326-3.558836 6.293278-2.549311.479996.234665.874659.533329 1.173323.895992.319997.362664.543995.714661.693327 1.066657h.138666v-2.154647h3.498636v12.94922c0 1.08799-.266665 1.994649-.799993 2.730643-.533329.725327-1.279989 1.279988-2.218647 1.642652-.938659.37333-2.026649.554662-3.242639.554662zm.074666-7.914597c.853326 0 1.514654-.319998 1.983983-.959992s.703994-1.503987.703994-2.634644c0-.74666-.106666-1.386654-.319997-1.951983-.202665-.554661-.501329-.981324-.906659-1.290655-.419552-.31809-.935013-.483639-1.461321-.469329-.586661 0-1.066657.159998-1.471987.479996-.40533.319997-.703994.74666-.917325 1.311988-.202665.554662-.309331 1.194656-.309331 1.919983-.012014.654206.096458 1.305037.319997 1.919984.202665.533328.501329.938658.906659 1.237322.394663.287998.885326.426663 1.471987.426663zm8.277261 2.847975v-12.810555h3.530636v12.810555h-3.541302zm1.759985-14.453207c-.533329 0-.981325-.170665-1.354655-.522662-.365031-.324576-.571283-.791561-.565328-1.279989 0-.490663.191998-.906659.565328-1.258656.365725-.344829.852095-.532484 1.354655-.522662.533328 0 .991991.170665 1.365321.533329.37333.34133.554662.757326.554662 1.258655 0 .490663-.181332.917326-.554662 1.269323s-.831993.533328-1.365321.533328zm5.32262 14.271875c-.624357-.265579-1.155398-.711208-1.52532-1.279989-.383944-.635656-.573077-1.36994-.543995-2.111981-.09648-1.17669.460632-2.311396 1.450654-2.954641.458662-.298664.959991-.533329 1.535986-.682661s1.173323-.255998 1.823984-.319997c.74666-.064 1.333322-.138666 1.791985-.213332.447996-.063999.778659-.159998.991991-.30933.213331-.138666.319997-.341331.319997-.607995v-.053333c0-.533328-.170665-.938658-.511995-1.226656-.319998-.298664-.799993-.437329-1.397321-.437329-.639995 0-1.141324.138665-1.52532.415996-.373331.277331-.618662.639995-.746661 1.066658l-3.285304-.266665c.308539-1.543098 1.400526-2.813038 2.879975-3.349304 1.522127-.541434 3.171316-.615722 4.735958-.213331.650661.170665 1.226656.426663 1.738652.77866 1.086663.741423 1.712177 1.992453 1.653319 3.306637v8.639925h-3.381304v-1.791985h-.085333c-.425211.84321-1.1705 1.480931-2.069315 1.770652-.479996.181331-1.034658.266664-1.674652.266664-.747209.011799-1.488557-.133563-2.175981-.426663zm4.586626-2.346646c.394664-.213332.703994-.490663.938659-.853326.213331-.351997.330664-.74666.330664-1.194656v-1.354655c-.106666.063999-.255998.127999-.447996.191998-.191999.064-.415997.106666-.639995.159999-.451666.091614-.907236.162797-1.365321.213331-.415997.064-.77866.159999-1.098657.298664-.319997.127999-.554662.309331-.725327.533329s-.255998.511996-.255998.853326c0 .469329.170665.842659.533329 1.08799.34133.255998.789326.383997 1.343988.383997.522662 0 .981325-.106666 1.386654-.319997z" fill="#fff" transform="translate(-263 -99)"></path></svg> 