<?xml version="1.0" encoding="UTF-8"?> <svg xmlns="http://www.w3.org/2000/svg" height="38" viewBox="0 0 163 38" width="163"><g fill="#fff" fill-rule="evenodd"><path d="m19 0c10.4934102 0 19 8.50658975 19 19 0 10.4934102-8.5065898 19-19 19-10.49341025 0-19-8.5065898-19-19 0-10.49341025 8.50658975-19 19-19zm-6.1612903 11h-2.8387097v16h2.8387097l-.0007097-12.098 11.1984656 12.098h2.8723703v-15.9887798h-2.8723703l-.0004656 12.0577798z"></path><path d="m53.7410448 22.6985075-.6567164.2462686v-9.7768657h2.1014925v11.6977612h-2.1014925l-8.8246269-9.4813432.6320895-.2462687v9.7276119h-2.0768656v-11.7059701h2.0768656zm13.930597-2.7828359v-6.7559701h2.0768657v6.9201492c0 .738806-.0985075 1.3791045-.2955224 1.9455224-.197015.5664179-.4925373 1.0261194-.8537314 1.4119403-.361194.3858209-.7962686.7059702-1.2970149.9522388-.5007463.2462687-1.0425373.4186568-1.641791.5335821-.5992538.1149254-1.2067165.1641791-1.8716418.1641791-.6731344 0-1.3134329-.0574627-1.9208956-.1641791-.6074626-.1067164-1.1656716-.2873134-1.6664179-.5335821-.5007462-.2462686-.9276119-.5664179-1.2888059-.9522388-.3611941-.3858209-.6402985-.8537313-.8373135-1.4119403-.1970149-.5582089-.3037313-1.2149253-.3037313-1.9455224v-6.9201492h2.0768657v6.7559701c0 .919403.180597 1.6089553.5253731 2.0850747s.8208955.8044776 1.4119403.9850746 1.2559701.2544776 2.0029851.2544776c.722388 0 1.3708955-.0820895 1.9619403-.2626866.5910447-.180597 1.0507462-.4925373 1.3955224-.9768656.3447761-.4843284.5253731-1.1656717.5253731-2.0850747zm12.9947761 3.866418h-.9604478l6.2716418-10.6223881h2.0768657v11.7059701h-2.0768657v-8.7425373l.4679105.1477612-5.1141791 8.5947761h-2.2738806l-5.1141791-8.5783582.4761194-.1231343v8.7014925h-2.0768657v-11.7059701h2.0768657zm12.0507463-3.8828359v3.1768657h8.3074628v1.7895522h-10.3843285v-11.7059701h10.3679105v1.7895522h-8.2910448v3.2343284h6.7970149v1.7156716zm2.0768657-8.2171641 2.2738805-2.87313438h2.7089553l-3.0455224 2.87313438zm8.5044771 13.183582v-11.7059701h7.002239c.878358 0 1.641791.1231343 2.273881.369403.632089.2462686 1.132836.6320895 1.477612 1.1492537s.525373 1.1574627.525373 1.9537314c0 .541791-.08209 1.0014925-.270896 1.3791044-.188806.377612-.426865.6895523-.755223.927612-.328359.2380597-.697762.4268656-1.132836.5582089-.435075.1313433-.886567.2052239-1.379105.2462687l-.180597-.1313433c.771642.0246269 1.420149.0985075 1.937314.2216418.517164.1231343.902985.361194 1.17388.6977612.270896.3365671.39403.8373134.39403 1.5022388v2.8320895h-2.093283v-2.7253731c0-.4597015-.08209-.8208955-.23806-1.0671642-.15597-.2462686-.435075-.4268656-.829105-.5335821-.39403-.1067164-.960447-.1559701-1.682835-.1559701h-4.153732v4.4820895zm2.068657-6.1731343h4.933582c.722388 0 1.272388-.180597 1.641791-.5335821s.558209-.8291045.558209-1.4201492c0-.5664179-.180597-1.0014926-.558209-1.297015-.377612-.2955223-.919403-.4514925-1.641791-.4514925h-4.925373zm11.86194-5.5328358h2.093284v11.7059701h-2.093284zm10.367911 10.9261194h2.052239v4.391791h-2.052239zm1.01791.9932836c-1.387313 0-2.594029-.2462687-3.620149-.738806-1.026119-.4925373-1.830597-1.1902985-2.380597-2.0932836-.55-.902985-.845522-1.9783582-.845522-3.2343283 0-1.2559702.279104-2.3313433.837313-3.2425373.558209-.9111941 1.354478-1.6007463 2.380597-2.0932836 1.02612-.4925373 2.241045-.730597 3.628358-.730597 1.403732 0 2.626866.2462686 3.636568.7388059 1.009701.4925373 1.80597 1.1820896 2.380597 2.0850747.574626.902985.845522 1.9947761.845522 3.2425373s-.287313 2.3313433-.853731 3.2343283c-.566418.9029851-1.354478 1.6007463-2.372388 2.0932836-1.017911.4925373-2.232836.738806-3.636568.738806zm0-1.838806c.911194 0 1.723881-.1559701 2.429851-.4597015.70597-.3037313 1.25597-.7716418 1.658209-1.3955224s.607463-1.4201492.607463-2.372388c0-.9358209-.205224-1.7238806-.607463-2.3477612s-.952239-1.0917911-1.658209-1.4037314-1.518657-.4761194-2.429851-.4761194c-.902985 0-1.715671.1641791-2.42985.4761194s-1.280597.7798508-1.691045 1.4037314-.615672 1.4119403-.615672 2.3477612c0 .9522388.205224 1.7402985.615672 2.3641791.410448.6320895.976866 1.1 1.691045 1.3955224.714179.2955223 1.526865.4679104 2.42985.4679104zm18.880597-3.3246269v-6.7559701h2.076866v6.9201492c0 .738806-.098507 1.3791045-.295522 1.9455224s-.492538 1.0261194-.853732 1.4119403-.796268.7059702-1.297015.9522388c-.500746.2462687-1.042537.4186568-1.641791.5335821-.599253.1149254-1.206716.1641791-1.871641.1641791-.673135 0-1.313433-.0574627-1.920896-.1641791s-1.165672-.2873134-1.666418-.5335821c-.500746-.2462686-.927612-.5664179-1.288806-.9522388s-.640298-.8537313-.837313-1.4119403c-.197015-.5582089-.303732-1.2149253-.303732-1.9455224v-6.9201492h2.076866v6.7559701c0 .919403.180597 1.6089553.525373 2.0850747s.820896.8044776 1.41194.9850746c.591045.180597 1.255971.2544776 2.002986.2544776.722388 0 1.370895-.0820895 1.96194-.2626866.591045-.180597 1.050746-.4925373 1.395522-.9768656.344776-.4843284.525373-1.1656717.525373-2.0850747zm6.747762-.0164179v3.1768657h8.307462v1.7895522h-10.384328v-11.7059701h10.359701v1.7895522h-8.291044v3.2343284h6.797015v1.7156716z" fill-rule="nonzero"></path></g></svg> 