<?xml version="1.0" encoding="UTF-8"?> <svg xmlns="http://www.w3.org/2000/svg" height="22" viewBox="0 0 123 22" width="123"><path d="m514.517361 127v-22h13.243924v3.676215h-9.567709v5.480903h7.734375v3.685764h-7.734375v9.157118zm12.250868 0 6.932292-22h5.394965l6.94184 22h-3.800347l-6.273437-19.736979h.811632l-6.206598 19.736979h-3.790798zm3.867188-4.774306v-3.4375h11.553819v3.4375zm16.242187 4.774306v-22h8.717882c1.489583 0 2.711806.296007 3.666667.897569.954861.592014 1.661458 1.355903 2.12934 2.291667.458333.916667.6875 1.871528.6875 2.864583.035271 1.09171-.264635 2.168037-.859375 3.084202-.557709.82616-1.389829 1.428264-2.348958 1.699653v-.754341c1.258929.239681 2.382814.941257 3.151041 1.967014.721178.989056 1.103038 2.184878 1.088542 3.408854.025236 1.186429-.233392 2.361714-.75434 3.427952-.491819.971998-1.267808 1.771299-2.224827 2.291666-.983507.544271-2.19618.821181-3.647569.821181zm3.723958-3.475694h5.423612c.649305 0 1.222222-.124132 1.71875-.381945 1.055513-.517613 1.701376-1.614078 1.642361-2.788194 0-.592014-.133681-1.126736-.381945-1.594618-.257812-.467882-.630208-.840278-1.117187-1.117188-.539929-.28745-1.145542-.428979-1.756945-.41059h-5.528646v6.302083zm0-9.739584h4.946181c.525174 0 1.002604-.095486 1.422743-.305555.420139-.190973.75434-.496528 1.002604-.89757.238716-.391493.362847-.888021.362847-1.480034 0-.763889-.248263-1.394098-.735243-1.900174-.547742-.529944-1.292021-.806885-2.052951-.763889h-4.946181zm13.644966 13.215278v-22h9.090278c.210069 0 .486979 0 .830729.019097.334201.019097.649305.047743.935764.095486 1.269965.200521 2.320312.630209 3.151041 1.279514.821319.643784 1.457225 1.493856 1.842882 2.463542.401042.993055.601563 2.100694.601563 3.303819.046849 1.647942-.427661 3.268625-1.355903 4.631077-.907118 1.279514-2.291667 2.081597-4.172743 2.387152l-1.565972.14323h-5.681424v7.677083zm12.632812 0-4.335069-8.956597 3.743055-.821181 4.774306 9.777778zm-8.956597-11.124132h5.261285c.210069 0 .439236-.009549.6875-.038194.257812-.019098.486979-.057292.706597-.114584.54739-.122427 1.045975-.404958 1.432292-.811632.353298-.381944.601562-.82118.75434-1.308159.282997-.940398.282997-1.943284 0-2.883681-.145465-.489889-.400112-.940419-.744792-1.317708-.353298-.381945-.830729-.649306-1.432291-.802084-.229167-.06684-.458334-.095486-.716146-.124132l-.6875-.028645h-5.261285zm14.895833 11.124132v-22h3.676216v22zm6.349827 0v-22h3.676215v10.207465l8.784722-10.207465h4.526042l-9.462674 10.789931 10.111979 11.210069h-4.678819l-9.28125-10.264757v10.264757zm-84.161459-21.961806c2.636777 0 4.774306 2.13753 4.774306 4.774306s-2.137529 4.774306-4.774306 4.774306h-16.232638c-2.636777 0-4.774306-2.13753-4.774306-4.774306s2.137529-4.774306 4.774306-4.774306zm0 2.864584h-16.232638c-1.054711 0-1.909723.855012-1.909723 1.909722s.855012 1.909722 1.909723 1.909722h16.232638c1.054711 0 1.909723-.855012 1.909723-1.909722s-.855012-1.909722-1.909723-1.909722zm-.47743 8.59375c2.900454 0 5.251736 2.351282 5.251736 5.251736s-2.351282 5.251736-5.251736 5.251736h-15.277778c-2.900454 0-5.251736-2.351282-5.251736-5.251736s2.351282-5.251736 5.251736-5.251736zm0 2.864583h-15.277778c-1.318388 0-2.387153 1.068765-2.387153 2.387153s1.068765 2.387153 2.387153 2.387153h15.277778c.852847 0 1.640911-.454989 2.067335-1.193577.426424-.738587.426424-1.648565 0-2.387153-.426424-.738587-1.214488-1.193576-2.067335-1.193576z" fill="#fff" transform="translate(-484 -105)"></path></svg> 