<?xml version="1.0" encoding="UTF-8"?> <svg xmlns="http://www.w3.org/2000/svg" height="41" viewBox="0 0 95 41" width="95"><path d="m54.832 6.78c-2.112 0-3.344.924-3.85 2.992l-.462-2.794h-1.98v15.4h2.508v-7.018c.528 1.958 1.738 2.838 3.784 2.838 3.146 0 4.488-1.716 4.488-5.72s-1.342-5.72-4.488-5.72zm-.902 1.826c2.024 0 2.882 1.166 2.882 3.872s-.858 3.872-2.882 3.872-2.882-1.166-2.882-3.872.858-3.872 2.882-3.872zm10.626 9.394v-11h-2.508v11zm-1.254-15.73c-1.1 0-1.562.44-1.562 1.474s.462 1.496 1.54 1.496c1.1 0 1.584-.462 1.584-1.496 0-1.012-.484-1.474-1.562-1.474zm6.424 4.73h-2.662l2.838 5.28-3.058 5.72h2.684l2.684-5.478 2.574 5.478h2.684l-2.948-5.72 2.728-5.28h-2.684l-2.354 5.038-2.464-5.038zm19.822 6.512v-.858c0-4.114-1.628-5.874-5.39-5.874-3.784 0-5.39 1.716-5.39 5.72s1.606 5.72 5.39 5.72c2.948 0 4.444-1.078 4.95-3.564h-2.376c-.374 1.364-1.1 1.892-2.574 1.892-1.848 0-2.728-.924-2.926-3.036zm-5.412-5.06c2.024 0 2.882 1.012 2.882 3.542h-5.83c.11-2.486 1.012-3.542 2.948-3.542zm7.832 9.548h2.486v-15.4h-2.486zm-37.136 6.78c-2.112 0-3.344.924-3.85 2.992l-.462-2.794h-1.98v15.4h2.508v-7.018c.528 1.958 1.738 2.838 3.784 2.838 3.146 0 4.488-1.716 4.488-5.72s-1.342-5.72-4.488-5.72zm-.902 1.826c2.024 0 2.882 1.166 2.882 3.872s-.858 3.872-2.882 3.872-2.882-1.166-2.882-3.872.858-3.872 2.882-3.872zm10.626 9.394v-11h-2.508v11zm-1.254-15.73c-1.1 0-1.562.44-1.562 1.474s.462 1.496 1.54 1.496c1.1 0 1.584-.462 1.584-1.496 0-1.012-.484-1.474-1.562-1.474zm14.762 11.242v-.858c0-4.114-1.628-5.874-5.39-5.874-3.784 0-5.39 1.716-5.39 5.72s1.606 5.72 5.39 5.72c2.948 0 4.444-1.078 4.95-3.564h-2.376c-.374 1.364-1.1 1.892-2.574 1.892-1.848 0-2.728-.924-2.926-3.036zm-5.412-5.06c2.024 0 2.882 1.012 2.882 3.542h-5.83c.11-2.486 1.012-3.542 2.948-3.542zm12.892.44h1.386v-2.112h-1.144c-1.694 0-2.552.924-2.904 2.882l-.44-2.662h-1.98v11h2.508v-5.5c0-2.706.572-3.608 2.552-3.608zm-74.3537922 1.9177922h8.4409727l-4.6345627 11.1902078h-7.61045792l-2.16417029-5.2217748-5.22177485-2.1620766v-7.6104579l11.19020776-4.6345628v8.4409728zm17.6195844-17.6195844h-8.4409727l4.6345627-11.1902078h7.6104579l2.1641703 5.22177484 5.2217749 2.16417029v7.61045797l-11.1902078 4.6345627zm-17.6195844 0v8.4409727l-11.1902078-4.6345627v-7.61045792l5.22177484-2.16417029 2.16417029-5.22177485h7.61045797l4.6345627 11.19020776zm17.6195844 17.6195844v-8.4409727l11.1902078 4.6345627v7.6104579l-5.2217748 2.1620766-2.1641703 5.2217748h-7.610458l-4.6345627-11.1902077h8.4409728z" fill="#e9e9e7"></path></svg> 