<svg xmlns="http://www.w3.org/2000/svg" width="100" height="38" viewBox="0 0 100 38"><g fill="#242627" fill-rule="nonzero"><path d="m5.36 37.58 1-6.74h7.16l1 6.74h5.9L14.47.42H5.94L0 37.58h5.36Zm7.37-11.79H7.1L9.92 7.01l2.8 18.78Zm20.62 11.79V5.73h6.1V.43H21.42v5.3h6.1v31.85h5.83Zm14.48 0V.42h-5.84v37.16h5.84Zm17.12 0L70.68.42h-5.36l-4.45 30.3L56.42.43h-5.89l5.73 37.16h8.7Zm16.81.42c2.86 0 5.06-.81 6.58-2.44 1.52-1.63 2.28-3.93 2.28-6.9V9.34c0-2.97-.76-5.27-2.28-6.9C86.82.81 84.62 0 81.76 0s-5.05.81-6.57 2.44c-1.52 1.63-2.28 3.93-2.28 6.9v19.32c0 2.97.76 5.27 2.28 6.9 1.52 1.63 3.7 2.44 6.57 2.44Zm0-5.3c-2.01 0-3.02-1.23-3.02-3.67V8.97c0-2.44 1-3.66 3.02-3.66s3.02 1.22 3.02 3.66v20.06c0 2.44-1 3.66-3.02 3.66ZM100 37.58v-5.63h-5.62v5.63z"></path></g></svg>