<svg xmlns="http://www.w3.org/2000/svg" width="105" height="38" viewBox="0 0 105 38"><g fill="#242627" fill-rule="nonzero"><path d="M4.49 37.78V18.35h15.78v-.54H4.49V.54H21.5V0H0v37.78h4.49ZM27.29 5.4c.65 0 1.2-.22 1.65-.65.45-.43.67-.97.67-1.62 0-.65-.22-1.2-.67-1.65-.45-.45-1-.67-1.65-.67-.65 0-1.19.22-1.62.67-.43.45-.65 1-.65 1.65A2.2 2.2 0 0 0 27.3 5.4Zm6 32.38v-.43H31.6l-.64-.1c-.4-.04-.8-.34-1.22-.9a3.98 3.98 0 0 1-.62-2.4V10.8h-3.79v23.15l.06.92c.03.65.44 1.3 1.21 1.94.78.65 1.9.97 3.38.97h3.3Zm14.43.22c3.82 0 6.96-1.24 9.43-3.72 2.47-2.49 3.7-5.98 3.7-10.48s-1.19-7.82-3.57-9.98-5.46-3.24-9.27-3.24c-3.8 0-6.93 1.24-9.4 3.72-2.47 2.49-3.7 5.98-3.7 10.48s1.19 7.82 3.57 9.98c2.37 2.16 5.45 3.24 9.24 3.24Zm-.06-.43a8 8 0 0 1-6.59-3.13c-1.66-2.09-2.49-5.3-2.49-9.64 0-4.33.9-7.72 2.7-10.15 1.8-2.42 4.08-3.64 6.82-3.64a8 8 0 0 1 6.59 3.13c1.66 2.09 2.48 5.3 2.48 9.64 0 4.33-.9 7.72-2.7 10.14-1.8 2.43-4.07 3.65-6.8 3.65Zm20.21.21V21.43c.08-1.73.78-3.57 2.11-5.53 1.33-1.96 2.81-3.27 4.43-3.92v1.14a2.41 2.41 0 0 0 2.49 2.48c.72 0 1.32-.23 1.8-.7.5-.47.74-1.06.74-1.78s-.24-1.33-.73-1.81a2.46 2.46 0 0 0-1.81-.73h-.22c-2.05.07-3.89 1.03-5.5 2.89a15.05 15.05 0 0 0-3.3 5.9V10.8h-3.79v26.98h3.78Zm26.24.22c3.62 0 6.87-.56 9.76-1.67l-.17-.38a26.68 26.68 0 0 1-9.62 1.62 7.37 7.37 0 0 1-6.18-3.13c-1.57-2.09-2.35-5.36-2.35-9.83 0-1.04.05-2.05.16-3.02H105v-.54c0-3.45-1-6.06-3.03-7.83a10.93 10.93 0 0 0-7.45-2.64c-3.68 0-6.7 1.24-9.08 3.72-2.38 2.49-3.57 5.98-3.57 10.48s1.14 7.82 3.4 9.98C87.56 36.92 90.5 38 94.12 38Zm7.22-16.84H85.76c.43-3.17 1.45-5.65 3.05-7.45 1.6-1.8 3.44-2.7 5.49-2.7a6.1 6.1 0 0 1 5.03 2.48c1.3 1.66 1.96 4.21 2 7.67ZM54.3 1.24a.54.54 0 0 1 .83.69l-.06.07-5.4 5.4a.54.54 0 0 1-.83-.69l.06-.07 5.4-5.4Z"></path></g></svg>