<svg xmlns="http://www.w3.org/2000/svg" width="163" height="38" viewBox="0 0 163 38"><g fill="#242627" fill-rule="evenodd"><path d="M19 .5c5.1 0 9.73 2.07 13.08 5.42A18.44 18.44 0 0 1 37.5 19c0 5.1-2.07 9.73-5.42 13.08A18.44 18.44 0 0 1 19 37.5c-5.1 0-9.73-2.07-13.08-5.42A18.44 18.44 0 0 1 .5 19c0-5.1 2.07-9.73 5.42-13.08A18.44 18.44 0 0 1 19 .5Zm-9.5 10v17h3.84V16.18L23.82 27.5h3.59V10.51h-3.87V21.8L13.06 10.5H9.5Z" stroke="#242627"></path><path d="m53.74 22.7-.66.24v-9.77h2.1v11.7h-2.1l-8.82-9.49.63-.24v9.73h-2.08V13.16h2.08l8.85 9.54Zm13.93-2.78v-6.76h2.08v6.92c0 .74-.1 1.38-.3 1.95-.2.56-.49 1.02-.85 1.4-.36.4-.8.71-1.3.96s-1.04.42-1.64.53a11.09 11.09 0 0 1-3.8 0 6.2 6.2 0 0 1-1.66-.53 3.96 3.96 0 0 1-2.13-2.36c-.2-.56-.3-1.22-.3-1.95v-6.92h2.08v6.76c0 .92.18 1.6.52 2.08.35.48.82.8 1.42.99.59.18 1.25.25 2 .25.72 0 1.37-.08 1.96-.26.6-.18 1.05-.5 1.4-.98.34-.48.52-1.16.52-2.08Zm13 3.86h-.96l6.27-10.62h2.07v11.7h-2.07v-8.74l.47.15-5.12 8.6h-2.27l-5.12-8.58.48-.13v8.7h-2.08v-11.7h2.08l6.25 10.62Zm12.05-3.88v3.18h8.3v1.79H90.64V13.16h10.37v1.79h-8.3v3.23h6.8v1.72h-6.8Zm2.07-8.22 2.28-2.87h2.7l-3.04 2.87H94.8Zm8.5 13.19V13.16h7.01c.88 0 1.64.12 2.27.37.64.25 1.14.63 1.48 1.15.35.52.53 1.16.53 1.95 0 .54-.08 1-.27 1.38-.2.38-.43.7-.76.93-.33.24-.7.43-1.13.56-.44.13-.89.2-1.38.24l-.18-.13c.77.03 1.42.1 1.94.22.51.13.9.36 1.17.7.27.34.4.84.4 1.5v2.84h-2.1v-2.73c0-.46-.08-.82-.24-1.07-.15-.24-.43-.42-.83-.53-.39-.1-.96-.16-1.68-.16h-4.15v4.49h-2.07Zm2.08-6.18h4.93c.72 0 1.27-.18 1.64-.53.37-.35.56-.83.56-1.42 0-.57-.18-1-.56-1.3a2.6 2.6 0 0 0-1.64-.45h-4.92l-.01 3.7Zm11.86-5.53h2.1v11.7h-2.1v-11.7Zm10.37 10.93h2.05v4.39h-2.05v-4.4Zm1.01.99c-1.38 0-2.59-.25-3.62-.74a5.5 5.5 0 0 1-2.38-2.1 6.1 6.1 0 0 1-.84-3.23 5.49 5.49 0 0 1 3.22-5.34 8.32 8.32 0 0 1 3.62-.72c1.4 0 2.63.24 3.64.74 1.01.49 1.8 1.18 2.38 2.08.58.9.85 2 .85 3.24a5.61 5.61 0 0 1-3.23 5.33c-1.02.5-2.23.74-3.64.74Zm0-1.84a6.1 6.1 0 0 0 2.43-.46c.71-.3 1.26-.77 1.66-1.4.4-.62.61-1.42.61-2.37 0-.93-.2-1.72-.6-2.35a3.7 3.7 0 0 0-1.67-1.4 5.97 5.97 0 0 0-2.43-.47c-.9 0-1.71.16-2.42.47-.72.31-1.29.78-1.7 1.4a4.2 4.2 0 0 0-.61 2.35c0 .95.2 1.74.61 2.37.41.63.98 1.1 1.7 1.4.7.29 1.52.46 2.42.46Zm18.89-3.32v-6.76h2.07v6.92c0 .74-.1 1.38-.3 1.95-.19.56-.49 1.02-.85 1.4-.36.4-.8.71-1.3.96s-1.04.42-1.64.53a11.09 11.09 0 0 1-3.8 0 6.2 6.2 0 0 1-1.65-.53 3.96 3.96 0 0 1-2.13-2.36c-.2-.56-.3-1.22-.3-1.95v-6.92h2.07v6.76c0 .92.18 1.6.53 2.08.34.48.82.8 1.41.99.6.18 1.26.25 2 .25.73 0 1.37-.08 1.96-.26.6-.18 1.06-.5 1.4-.98.34-.48.53-1.16.53-2.08Zm6.74-.02v3.18h8.31v1.79h-10.38V13.16h10.36v1.79h-8.3v3.23h6.8v1.72h-6.79Z" fill-rule="nonzero"></path></g></svg>