<svg xmlns="http://www.w3.org/2000/svg" width="180" height="40" viewBox="0 0 180 40"><g fill="none" fill-rule="evenodd"><path d="M20 1c4.22 0 7.6 3.38 7.6 7.6v3.8h3.8c4.22 0 7.6 3.38 7.6 7.6s-3.38 7.6-7.6 7.6c-1.27 0-2.53.1-3.8.1v3.7c0 4.22-3.38 7.6-7.6 7.6a7.57 7.57 0 0 1-7.6-7.6v-3.7l-3.8-.1A7.57 7.57 0 0 1 1 20c0-4.22 3.48-7.6 7.6-7.6h3.8V8.6C12.4 4.48 15.78 1 20 1Zm5.74 26.7H14.12v3.7a5.86 5.86 0 0 0 5.81 5.81c3.17 0 5.8-2.64 5.8-5.81v-3.7Zm-11.62-1.75h11.62V14.26H14.12v11.69ZM27.6 14.12v11.62h3.8a5.86 5.86 0 0 0 5.81-5.81c0-3.17-2.64-5.8-5.8-5.8H27.6Zm-15.2 0H8.6a5.86 5.86 0 0 0-5.81 5.81c0 3.17 2.64 5.8 5.81 5.8h3.8v-11.6Zm1.72-1.72h11.62V8.6a5.86 5.86 0 0 0-5.8-5.81 5.86 5.86 0 0 0-5.82 5.81v3.8Z" fill="#242627"></path><path d="M20 1c4.22 0 7.6 3.38 7.6 7.6v3.8h3.8c4.22 0 7.6 3.38 7.6 7.6s-3.38 7.6-7.6 7.6c-1.27 0-2.53.1-3.8.1v3.7c0 4.22-3.38 7.6-7.6 7.6a7.57 7.57 0 0 1-7.6-7.6v-3.7l-3.8-.1A7.57 7.57 0 0 1 1 20c0-4.22 3.48-7.6 7.6-7.6h3.8V8.6C12.4 4.48 15.78 1 20 1Zm5.74 26.7H14.12v3.7a5.86 5.86 0 0 0 5.81 5.81c3.17 0 5.8-2.64 5.8-5.81v-3.7Zm-11.62-1.75h11.62V14.26H14.12v11.69ZM27.6 14.12v11.62h3.8a5.86 5.86 0 0 0 5.81-5.81c0-3.17-2.64-5.8-5.8-5.8H27.6Zm-15.2 0H8.6a5.86 5.86 0 0 0-5.81 5.81c0 3.17 2.64 5.8 5.81 5.8h3.8v-11.6Zm1.72-1.72h11.62V8.6a5.86 5.86 0 0 0-5.8-5.81 5.86 5.86 0 0 0-5.82 5.81v3.8Z" fill="#242627"></path><path d="M20 1c4.22 0 7.6 3.38 7.6 7.6v3.8h3.8c4.22 0 7.6 3.38 7.6 7.6s-3.38 7.6-7.6 7.6c-1.27 0-2.53.1-3.8.1v3.7c0 4.22-3.38 7.6-7.6 7.6a7.57 7.57 0 0 1-7.6-7.6v-3.7l-3.8-.1A7.57 7.57 0 0 1 1 20c0-4.22 3.48-7.6 7.6-7.6h3.8V8.6C12.4 4.48 15.78 1 20 1Zm5.74 26.7H14.12v3.7a5.86 5.86 0 0 0 5.81 5.81c3.17 0 5.8-2.64 5.8-5.81v-3.7Zm-11.62-1.75h11.62V14.26H14.12v11.69ZM27.6 14.12v11.62h3.8a5.86 5.86 0 0 0 5.81-5.81c0-3.17-2.64-5.8-5.8-5.8H27.6Zm-15.2 0H8.6a5.86 5.86 0 0 0-5.81 5.81c0 3.17 2.64 5.8 5.81 5.8h3.8v-11.6Zm1.72-1.72h11.62V8.6a5.86 5.86 0 0 0-5.8-5.81 5.86 5.86 0 0 0-5.82 5.81v3.8Z" fill="#242627"></path><path d="M20 1c4.22 0 7.6 3.38 7.6 7.6v3.8h3.8c4.22 0 7.6 3.38 7.6 7.6s-3.38 7.6-7.6 7.6c-1.27 0-2.53.1-3.8.1v3.7c0 4.22-3.38 7.6-7.6 7.6a7.57 7.57 0 0 1-7.6-7.6v-3.7l-3.8-.1A7.57 7.57 0 0 1 1 20c0-4.22 3.48-7.6 7.6-7.6h3.8V8.6C12.4 4.48 15.78 1 20 1Zm5.74 26.7H14.12v3.7a5.86 5.86 0 0 0 5.81 5.81c3.17 0 5.8-2.64 5.8-5.81v-3.7Zm-11.62-1.75h11.62V14.26H14.12v11.69ZM27.6 14.12v11.62h3.8a5.86 5.86 0 0 0 5.81-5.81c0-3.17-2.64-5.8-5.8-5.8H27.6Zm-15.2 0H8.6a5.86 5.86 0 0 0-5.81 5.81c0 3.17 2.64 5.8 5.81 5.8h3.8v-11.6Zm1.72-1.72h11.62V8.6a5.86 5.86 0 0 0-5.8-5.81 5.86 5.86 0 0 0-5.82 5.81v3.8Z" fill="#242627" stroke="#242627" stroke-width="1.52"></path><path d="M20 1c4.22 0 7.6 3.38 7.6 7.6v3.8h3.8c4.22 0 7.6 3.38 7.6 7.6s-3.38 7.6-7.6 7.6c-1.27 0-2.53.1-3.8.1v3.7c0 4.22-3.38 7.6-7.6 7.6a7.57 7.57 0 0 1-7.6-7.6v-3.7l-3.8-.1A7.57 7.57 0 0 1 1 20c0-4.22 3.48-7.6 7.6-7.6h3.8V8.6C12.4 4.48 15.78 1 20 1Zm5.74 26.7H14.12v3.7a5.86 5.86 0 0 0 5.81 5.81c3.17 0 5.8-2.64 5.8-5.81v-3.7Zm-11.62-1.75h11.62V14.26H14.12v11.69ZM27.6 14.12v11.62h3.8a5.86 5.86 0 0 0 5.81-5.81c0-3.17-2.64-5.8-5.8-5.8H27.6Zm-15.2 0H8.6a5.86 5.86 0 0 0-5.81 5.81c0 3.17 2.64 5.8 5.81 5.8h3.8v-11.6Zm1.72-1.72h11.62V8.6a5.86 5.86 0 0 0-5.8-5.81 5.86 5.86 0 0 0-5.82 5.81v3.8Z" stroke="#242627" stroke-width="1.52"></path><g fill="#242627" fill-rule="nonzero"><path d="M67.82 38.44c3.5 0 6.55-.78 9.19-2.34 2.63-1.56 3.95-4.15 3.95-7.77 0-2.91-1.04-5.13-3.12-6.66-1.2-.87-2.9-1.56-5.12-2.07l-4.59-1.05c-3.08-.7-5.07-1.3-5.94-1.78a3.74 3.74 0 0 1-2-3.51c0-1.46.57-2.74 1.71-3.83 1.14-1.1 3.02-1.65 5.63-1.65 3.24 0 5.53.85 6.88 2.56a8.2 8.2 0 0 1 1.43 4.03H80c0-3.64-1.2-6.28-3.6-7.94-2.4-1.65-5.3-2.48-8.73-2.48-3.73 0-6.6.94-8.64 2.83A9.43 9.43 0 0 0 55.98 14c0 2.72 1.04 4.76 3.11 6.13 1.2.78 3.26 1.5 6.15 2.15l4.43 1c2.4.56 4.17 1.2 5.3 1.94 1.11.76 1.67 2.03 1.67 3.81 0 2.38-1.32 4.02-3.96 4.94-1.37.48-2.88.72-4.55.72-3.7 0-6.3-1.09-7.77-3.25a8.94 8.94 0 0 1-1.31-4.52h-4.16c-.05 3.53 1.08 6.33 3.38 8.39 2.3 2.08 5.49 3.12 9.55 3.12Zm24.63-.16c1.84 0 3.52-.4 5.05-1.18a10.2 10.2 0 0 0 3.52-2.78c.14.95.37 1.68.7 2.2.62.98 1.62 1.47 3 1.47.56 0 1-.02 1.33-.06.33-.05.8-.16 1.43-.34v-2.96a9.63 9.63 0 0 1-1.31.13c-.55 0-.91-.12-1.08-.37a1.76 1.76 0 0 1-.26-1V19.64c0-2.26-.87-3.92-2.6-5-1.76-1.06-4.04-1.6-6.84-1.6-2.42 0-4.55.58-6.38 1.73s-2.79 3.2-2.86 6.13h3.74c.15-1.23.47-2.16.96-2.78.87-1.13 2.36-1.7 4.45-1.7 1.81 0 3.2.32 4.17.93.98.62 1.46 1.61 1.46 2.98 0 .66-.09 1.18-.26 1.53-.32.65-.93 1.04-1.85 1.16l-6.4.8A9.85 9.85 0 0 0 87 26.08c-1.38 1.22-2.07 2.93-2.07 5.14 0 2.02.7 3.7 2.1 5.05a7.52 7.52 0 0 0 5.43 2.01Zm.93-3.4a4.7 4.7 0 0 1-3-1 3.3 3.3 0 0 1-1.27-2.75c0-1.52.62-2.64 1.85-3.34a9.28 9.28 0 0 1 3.27-.9l2.43-.32c.74-.09 1.5-.24 2.27-.45.77-.2 1.4-.46 1.9-.77v3.22a5.51 5.51 0 0 1-3.35 5.33 9.14 9.14 0 0 1-4.1.97Zm22.14 2.6V4.78h-4.01v32.7h4Zm13.87.65c2.18 0 4.04-.63 5.57-1.87a8.08 8.08 0 0 0 1.93-2.3l-.04 3.52h3.78V13.63h-4v11.72c0 2.33-.28 4.16-.83 5.5-1 2.49-2.9 3.74-5.7 3.74-1.94 0-3.27-.72-3.98-2.14a6.67 6.67 0 0 1-.58-2.99V13.63h-4.1v16.21c0 2.04.33 3.66 1 4.88 1.23 2.27 3.55 3.4 6.95 3.4Zm23.11-.27c.58 0 1.12-.03 1.62-.1.5-.05.97-.15 1.43-.28v-3.16a11.96 11.96 0 0 1-1.4.07 3.6 3.6 0 0 1-1.56-.25c-.56-.28-.85-.84-.85-1.67V16.91h3.81v-3.28h-3.8V6.98h-4.06v6.65h-3.23v3.28h3.23v15.78c0 1.53.34 2.77 1 3.73.67.96 1.94 1.44 3.81 1.44Zm16.37.47c1.21 0 2.3-.12 3.27-.36a9.34 9.34 0 0 0 4.52-2.4c.73-.69 1.38-1.57 1.97-2.64a8.3 8.3 0 0 0 1.04-2.93h-3.95a6.42 6.42 0 0 1-6.52 4.85c-2.24 0-3.9-.73-4.96-2.2-1.07-1.45-1.64-3.4-1.72-5.81H180c0-2.4-.12-4.16-.36-5.26-.26-1.6-.8-3-1.6-4.2a9.07 9.07 0 0 0-3.63-3.09c-1.59-.8-3.23-1.2-4.92-1.2-3.35 0-6.07 1.2-8.15 3.6-2.08 2.38-3.12 5.5-3.12 9.32 0 3.9 1.04 6.92 3.1 9.08a10.04 10.04 0 0 0 7.55 3.24Zm7.01-14.68h-13.25a7.53 7.53 0 0 1 1.98-5.06 6.1 6.1 0 0 1 4.64-2c2.56 0 4.4.97 5.5 2.9.59 1.04.97 2.43 1.13 4.16Z"></path><path d="M67.82 38.44c3.5 0 6.55-.78 9.19-2.34 2.63-1.56 3.95-4.15 3.95-7.77 0-2.91-1.04-5.13-3.12-6.66-1.2-.87-2.9-1.56-5.12-2.07l-4.59-1.05c-3.08-.7-5.07-1.3-5.94-1.78a3.74 3.74 0 0 1-2-3.51c0-1.46.57-2.74 1.71-3.83 1.14-1.1 3.02-1.65 5.63-1.65 3.24 0 5.53.85 6.88 2.56a8.2 8.2 0 0 1 1.43 4.03H80c0-3.64-1.2-6.28-3.6-7.94-2.4-1.65-5.3-2.48-8.73-2.48-3.73 0-6.6.94-8.64 2.83A9.43 9.43 0 0 0 55.98 14c0 2.72 1.04 4.76 3.11 6.13 1.2.78 3.26 1.5 6.15 2.15l4.43 1c2.4.56 4.17 1.2 5.3 1.94 1.11.76 1.67 2.03 1.67 3.81 0 2.38-1.32 4.02-3.96 4.94-1.37.48-2.88.72-4.55.72-3.7 0-6.3-1.09-7.77-3.25a8.94 8.94 0 0 1-1.31-4.52h-4.16c-.05 3.53 1.08 6.33 3.38 8.39 2.3 2.08 5.49 3.12 9.55 3.12Zm24.63-.16c1.84 0 3.52-.4 5.05-1.18a10.2 10.2 0 0 0 3.52-2.78c.14.95.37 1.68.7 2.2.62.98 1.62 1.47 3 1.47.56 0 1-.02 1.33-.06.33-.05.8-.16 1.43-.34v-2.96a9.63 9.63 0 0 1-1.31.13c-.55 0-.91-.12-1.08-.37a1.76 1.76 0 0 1-.26-1V19.64c0-2.26-.87-3.92-2.6-5-1.76-1.06-4.04-1.6-6.84-1.6-2.42 0-4.55.58-6.38 1.73s-2.79 3.2-2.86 6.13h3.74c.15-1.23.47-2.16.96-2.78.87-1.13 2.36-1.7 4.45-1.7 1.81 0 3.2.32 4.17.93.98.62 1.46 1.61 1.46 2.98 0 .66-.09 1.18-.26 1.53-.32.65-.93 1.04-1.85 1.16l-6.4.8A9.85 9.85 0 0 0 87 26.08c-1.38 1.22-2.07 2.93-2.07 5.14 0 2.02.7 3.7 2.1 5.05a7.52 7.52 0 0 0 5.43 2.01Zm.93-3.4a4.7 4.7 0 0 1-3-1 3.3 3.3 0 0 1-1.27-2.75c0-1.52.62-2.64 1.85-3.34a9.28 9.28 0 0 1 3.27-.9l2.43-.32c.74-.09 1.5-.24 2.27-.45.77-.2 1.4-.46 1.9-.77v3.22a5.51 5.51 0 0 1-3.35 5.33 9.14 9.14 0 0 1-4.1.97Zm22.14 2.6V4.78h-4.01v32.7h4Zm13.87.65c2.18 0 4.04-.63 5.57-1.87a8.08 8.08 0 0 0 1.93-2.3l-.04 3.52h3.78V13.63h-4v11.72c0 2.33-.28 4.16-.83 5.5-1 2.49-2.9 3.74-5.7 3.74-1.94 0-3.27-.72-3.98-2.14a6.67 6.67 0 0 1-.58-2.99V13.63h-4.1v16.21c0 2.04.33 3.66 1 4.88 1.23 2.27 3.55 3.4 6.95 3.4Zm23.11-.27c.58 0 1.12-.03 1.62-.1.5-.05.97-.15 1.43-.28v-3.16a11.96 11.96 0 0 1-1.4.07 3.6 3.6 0 0 1-1.56-.25c-.56-.28-.85-.84-.85-1.67V16.91h3.81v-3.28h-3.8V6.98h-4.06v6.65h-3.23v3.28h3.23v15.78c0 1.53.34 2.77 1 3.73.67.96 1.94 1.44 3.81 1.44Zm16.37.47c1.21 0 2.3-.12 3.27-.36a9.34 9.34 0 0 0 4.52-2.4c.73-.69 1.38-1.57 1.97-2.64a8.3 8.3 0 0 0 1.04-2.93h-3.95a6.42 6.42 0 0 1-6.52 4.85c-2.24 0-3.9-.73-4.96-2.2-1.07-1.45-1.64-3.4-1.72-5.81H180c0-2.4-.12-4.16-.36-5.26-.26-1.6-.8-3-1.6-4.2a9.07 9.07 0 0 0-3.63-3.09c-1.59-.8-3.23-1.2-4.92-1.2-3.35 0-6.07 1.2-8.15 3.6-2.08 2.38-3.12 5.5-3.12 9.32 0 3.9 1.04 6.92 3.1 9.08a10.04 10.04 0 0 0 7.55 3.24Zm7.01-14.68h-13.25a7.53 7.53 0 0 1 1.98-5.06 6.1 6.1 0 0 1 4.64-2c2.56 0 4.4.97 5.5 2.9.59 1.04.97 2.43 1.13 4.16Z"></path></g></g></svg>