<svg width="33" height="11" viewBox="0 0 33 11" fill="none" xmlns="http://www.w3.org/2000/svg">
<path d="M30.4424 0C31.3114 7.95048e-05 32.0156 0.697207 32.0156 1.55664V9.33691C32.0156 10.1963 31.3114 10.8935 30.4424 10.8936H22.5732C21.7043 10.8933 21 10.1962 21 9.33691V1.55664C21 0.697311 21.7043 0.000247716 22.5732 0H30.4424ZM26.5078 2.21289C24.6056 2.21307 23.0636 3.73801 23.0635 5.61914C23.0635 7.50034 24.6055 9.02521 26.5078 9.02539C27.1959 9.02539 27.836 8.8242 28.374 8.48047L27.6123 7.72754C27.2846 7.4034 27.2846 6.87782 27.6123 6.55371C27.94 6.23002 28.4711 6.22999 28.7988 6.55371L29.5215 7.26855C29.7958 6.77973 29.9531 6.21779 29.9531 5.61914C29.953 3.73791 28.4102 2.21289 26.5078 2.21289ZM16.1318 2.8916C16.6792 2.89164 17.1551 2.99843 17.5586 3.21191C17.962 3.42289 18.2741 3.74478 18.4951 4.17676C18.7161 4.60878 18.8261 5.1462 18.8262 5.78906C18.8262 6.43215 18.7162 6.97023 18.4951 7.40234C18.2742 7.83419 17.9618 8.15663 17.5586 8.37012C17.1551 8.58106 16.6792 8.68649 16.1318 8.68652C15.5843 8.68652 15.1086 8.58109 14.7051 8.37012C14.3043 8.15922 13.9921 7.83809 13.7686 7.40625C13.5475 6.97414 13.4365 6.43469 13.4365 5.78906C13.4366 5.14354 13.5475 4.60491 13.7686 4.17285C13.9896 3.74077 14.3015 3.41897 14.7051 3.20801C15.1086 2.99706 15.5844 2.8916 16.1318 2.8916ZM4.26074 3.8418L2.0625 7.26953H4.29883V8.61133H0V7.73828L2.19727 4.31055H0.0380859V2.96875H4.26074V3.8418ZM8.58301 4.25684H6.11523V5.08789H8.17773V6.37695H6.11523V7.32227H8.62109V8.61133H4.54199V2.96875H8.58301V4.25684ZM10.7871 2.8916C11.6299 2.89164 12.2621 3.04918 12.6836 3.36426C13.1077 3.67944 13.3203 4.15869 13.3203 4.80176C13.3203 5.18035 13.2349 5.5068 13.0654 5.78125C12.8984 6.05309 12.6608 6.26684 12.3525 6.42188L13.7705 8.61035H12.0625L10.8604 6.70801L10.5088 6.69629V8.61035H8.94043V3.10156C9.56746 2.96182 10.1832 2.8916 10.7871 2.8916ZM16.1318 4.16895C15.7823 4.16895 15.5182 4.29434 15.3408 4.5459C15.1635 4.79754 15.0752 5.20213 15.0752 5.75879C15.0752 6.34569 15.1623 6.76765 15.3369 7.02441C15.5143 7.28114 15.7797 7.41016 16.1318 7.41016C16.4838 7.41009 16.7471 7.2838 16.9219 7.03223C17.0992 6.78058 17.1885 6.376 17.1885 5.81934C17.1884 5.23496 17.0992 4.81427 16.9219 4.55762C16.7471 4.29852 16.4838 4.16901 16.1318 4.16895ZM10.9912 4.06641C10.8113 4.06641 10.6502 4.07946 10.5088 4.10742V5.49219C10.6836 5.50998 10.8407 5.51855 10.9795 5.51855C11.2597 5.51855 11.4709 5.46243 11.6123 5.35059C11.7534 5.23872 11.8242 5.0557 11.8242 4.80176C11.8242 4.55283 11.7522 4.36849 11.6084 4.24902C11.467 4.12703 11.2611 4.06642 10.9912 4.06641Z" fill="black"/>
</svg>
