<svg width="64" height="64" viewBox="0 0 64 64" fill="none" xmlns="http://www.w3.org/2000/svg">
<rect width="64" height="64" fill="black"/>
<path d="M16 20.4286C16 17.9827 17.9827 16 20.4286 16H42.5714C45.0173 16 47 17.9827 47 20.4286V42.5714C47 45.0173 45.0173 47 42.5714 47H20.4286C17.9827 47 16 45.0173 16 42.5714V20.4286Z" fill="white"/>
<path d="M41 32C41 37.5228 36.7467 42 31.5 42C26.2533 42 22 37.5228 22 32C22 26.4772 26.2533 22 31.5 22C36.7467 22 41 26.4772 41 32Z" fill="black"/>
<path d="M34.6943 34.6943C35.6199 33.7686 37.1208 33.7686 38.0465 34.6943L45.3057 41.9535C46.2314 42.8792 46.2314 44.3801 45.3057 45.3057C44.3801 46.2314 42.8792 46.2314 41.9535 45.3057L34.6943 38.0465C33.7686 37.1208 33.7686 35.6199 34.6943 34.6943Z" fill="white"/>
</svg>
