<svg xmlns="http://www.w3.org/2000/svg" xmlns:xlink="http://www.w3.org/1999/xlink" width="35px" height="35px" viewBox="0 0 35 35"><title>Quote</title><g id="Quote" stroke="none" stroke-width="1" fill="none" fill-rule="evenodd"><path d="M20,35 L20,25.7677903 C20,20.4818976 21.2777778,16.119226 23.8333333,12.6797753 C26.3888889,9.24032459 30.1111111,7.01373283 35,6 L35,11.9737828 C32.6296296,12.5530587 30.7777778,13.6210986 29.4444444,15.1779026 C28.1111111,16.7347066 27.2962963,18.6354557 27,20.8801498 L32.7777778,20.8801498 L32.7777778,35 L20,35 Z M0,35 L0,25.7677903 C0,20.4818976 1.27777778,16.119226 3.83333333,12.6797753 C6.38888889,9.24032459 10.1111111,7.01373283 15,6 L15,11.9737828 C12.6296296,12.5530587 10.7777778,13.6210986 9.44444444,15.1779026 C8.11111111,16.7347066 7.2962963,18.6354557 7,20.8801498 L12.7777778,20.8801498 L12.7777778,35 L0,35 Z" id="quote-copy" fill="#000000" fill-rule="nonzero"></path></g></svg>