<svg width="33" height="11" viewBox="0 0 33 11" fill="none" xmlns="http://www.w3.org/2000/svg">
<path d="M30.4424 0C31.3114 7.95048e-05 32.0156 0.697207 32.0156 1.55664V9.33691C32.0156 10.1963 31.3114 10.8935 30.4424 10.8936H22.5732C21.7043 10.8933 21 10.1962 21 9.33691V1.55664C21 0.697311 21.7043 0.000247716 22.5732 0H30.4424ZM26.5078 2.21289C24.6056 2.21307 23.0636 3.73801 23.0635 5.61914C23.0635 7.50034 24.6055 9.02521 26.5078 9.02539C28.4102 9.02539 29.9531 7.50045 29.9531 5.61914C29.953 3.73791 28.4102 2.21289 26.5078 2.21289Z" fill="white"/>
<path d="M16.1316 8.68701C15.5841 8.68701 15.1086 8.58152 14.705 8.37055C14.304 8.15957 13.9917 7.83803 13.7681 7.40592C13.5471 6.9738 13.4365 6.43493 13.4365 5.7893C13.4365 5.14368 13.5471 4.6048 13.7681 4.17269C13.9892 3.74058 14.3015 3.41903 14.705 3.20806C15.1086 2.99709 15.5841 2.8916 16.1316 2.8916C16.6791 2.8916 17.1546 2.99836 17.5581 3.21187C17.9617 3.42285 18.274 3.74439 18.495 4.1765C18.7161 4.60862 18.8266 5.14622 18.8266 5.7893C18.8266 6.43239 18.7161 6.96999 18.495 7.4021C18.274 7.83422 17.9617 8.15703 17.5581 8.37055C17.1546 8.58152 16.6791 8.68701 16.1316 8.68701ZM16.1316 7.40973C16.4837 7.40973 16.7472 7.28391 16.922 7.03227C17.0993 6.78062 17.188 6.37647 17.188 5.81981C17.188 5.23518 17.0993 4.81451 16.922 4.55778C16.7472 4.29851 16.4837 4.16888 16.1316 4.16888C15.782 4.16888 15.5185 4.2947 15.3412 4.54634C15.1638 4.79798 15.0751 5.20214 15.0751 5.7588C15.0751 6.34597 15.1625 6.76791 15.3373 7.02464C15.5147 7.28137 15.7794 7.40973 16.1316 7.40973Z" fill="white"/>
<path d="M12.063 8.61075L10.86 6.70818L10.5092 6.69674V8.61075H8.93994V3.1013C9.56712 2.9615 10.1827 2.8916 10.7868 2.8916C11.6298 2.8916 12.2622 3.0492 12.6837 3.36438C13.1078 3.67957 13.3199 4.15871 13.3199 4.8018C13.3199 5.18053 13.2351 5.50716 13.0654 5.78168C12.8983 6.05366 12.6606 6.26717 12.3521 6.42222L13.771 8.61075H12.063ZM10.5092 5.49191C10.6839 5.5097 10.8407 5.5186 10.9795 5.5186C11.2597 5.5186 11.4705 5.46268 11.6119 5.35084C11.7532 5.239 11.8239 5.05598 11.8239 4.8018C11.8239 4.5527 11.7519 4.36841 11.608 4.24895C11.4666 4.12694 11.261 4.06593 10.9911 4.06593C10.8112 4.06593 10.6505 4.07991 10.5092 4.10787V5.49191Z" fill="white"/>
<path d="M6.11507 7.32244H8.62119V8.61116H4.54199V2.96826H8.58264V4.25698H6.11507V5.08816H8.1778V6.37687H6.11507V7.32244Z" fill="white"/>
<path d="M2.06273 7.26906H4.29897V8.61116H0V7.73803L2.19768 4.31036H0.0385558V2.96826H4.26041V3.84139L2.06273 7.26906Z" fill="white"/>
<path d="M27.612 6.55413C27.9398 6.23 28.4712 6.23 28.799 6.55413L31.3694 9.09598C31.6972 9.42011 31.6972 9.94564 31.3694 10.2698C31.0416 10.5939 30.5102 10.5939 30.1824 10.2698L27.612 7.72793C27.2843 7.4038 27.2843 6.87826 27.612 6.55413Z" fill="white"/>
</svg>
