<svg xmlns="http://www.w3.org/2000/svg" width="125" height="28" viewBox="0 0 125 28"><g fill="#242627" fill-rule="evenodd"><path d="M11.77 27.95c-2.25 0-4.26-.55-6.04-1.63a11.21 11.21 0 0 1-4.2-4.66A15.89 15.89 0 0 1 0 14.43c0-2.81.51-5.24 1.54-7.26a11.3 11.3 0 0 1 4.2-4.66A11.33 11.33 0 0 1 11.77.88c1.38 0 2.68.2 3.89.6 1.21.4 2.3.99 3.26 1.76a9.6 9.6 0 0 1 2.38 2.8c.63 1.12 1.04 2.37 1.25 3.78h-3.97a6.2 6.2 0 0 0-4.4-4.96 7.95 7.95 0 0 0-6.4.8A7.65 7.65 0 0 0 4.93 9a12.85 12.85 0 0 0-1.02 5.42c0 2.15.34 3.96 1.03 5.42a7.68 7.68 0 0 0 2.83 3.34 8.06 8.06 0 0 0 6.38.8 6.63 6.63 0 0 0 2.02-1.01 6.18 6.18 0 0 0 2.4-3.88h3.97A9.92 9.92 0 0 1 19 25.48c-.94.78-2.03 1.4-3.24 1.82-1.22.43-2.55.65-4 .65ZM33.74 28a9 9 0 0 1-4.82-1.27 8.51 8.51 0 0 1-3.2-3.58 11.94 11.94 0 0 1-1.13-5.34c0-2.05.38-3.85 1.14-5.38a8.5 8.5 0 0 1 3.2-3.59 9 9 0 0 1 4.81-1.27c1.85 0 3.46.42 4.84 1.27a8.58 8.58 0 0 1 3.2 3.59 12 12 0 0 1 1.13 5.38c0 2.03-.38 3.81-1.14 5.34a8.59 8.59 0 0 1-3.2 3.58A8.98 8.98 0 0 1 33.75 28Zm0-3.24c1.21 0 2.2-.32 3-.95a5.66 5.66 0 0 0 1.74-2.54c.38-1.06.57-2.2.57-3.46 0-1.27-.2-2.44-.57-3.5a5.65 5.65 0 0 0-1.75-2.55 4.59 4.59 0 0 0-2.99-.95c-1.19 0-2.18.32-2.96.95a5.74 5.74 0 0 0-1.74 2.55 10.17 10.17 0 0 0-.58 3.5c0 1.25.19 2.4.58 3.46.38 1.06.97 1.9 1.74 2.54.78.63 1.77.95 2.96.95ZM45.65 27.6V7.81h3.8v19.77h-3.8Zm1.92-22.82c-.67 0-1.24-.23-1.7-.68-.47-.44-.7-.98-.7-1.6 0-.64.23-1.19.7-1.63a2.37 2.37 0 0 1 1.7-.68c.65 0 1.22.23 1.7.68.47.44.7.99.7 1.62 0 .63-.23 1.17-.7 1.61-.48.45-1.05.68-1.7.68ZM60.2 0a8.86 8.86 0 0 1 3.21.53l-.91 3.11-.68-.2a4.2 4.2 0 0 0-1.02-.1c-.93 0-1.6.24-2 .7-.42.47-.62 1.14-.62 2.03v1.75h4.27v3.1h-4.27v16.67h-3.8V10.91h-3.02v-3.1h3.02v-2.3c0-1.22.28-2.24.82-3.06A5.08 5.08 0 0 1 57.34.61C58.23.21 59.18 0 60.2 0ZM89.08 19.42V7.82h3.8v19.77h-3.73v-3.43h-.21a6.07 6.07 0 0 1-5.87 3.68 6.6 6.6 0 0 1-3.35-.83 5.65 5.65 0 0 1-2.26-2.5 9.3 9.3 0 0 1-.82-4.12V7.82h3.8v12.13c0 1.33.37 2.4 1.12 3.2.75.8 1.71 1.2 2.9 1.19a4.74 4.74 0 0 0 3.9-2.16c.48-.73.72-1.65.72-2.76ZM71.97 0a8.86 8.86 0 0 1 3.21.53l-.91 3.11-.68-.2a4.2 4.2 0 0 0-1.02-.1c-.93 0-1.6.24-2 .7-.42.47-.62 1.14-.62 2.03v1.75h4.27v3.1h-4.27v16.67h-3.8V10.91h-3.02v-3.1h3.02v-2.3c0-1.22.28-2.24.82-3.06A5.08 5.08 0 0 1 69.11.61C70 .21 70.95 0 71.97 0ZM96.53 27.6V7.81h3.67v3.16h.2c.37-1.06 1-1.9 1.91-2.52.91-.62 1.94-.92 3.09-.92a15.5 15.5 0 0 1 1.61.08v3.68a9.92 9.92 0 0 0-2-.21 5 5 0 0 0-2.42.58 4.3 4.3 0 0 0-2.27 3.88v12.04h-3.8ZM111.6 26.74a8.32 8.32 0 0 1-3.24-3.54 11.93 11.93 0 0 1-1.14-5.35c0-2.03.37-3.82 1.12-5.36a8.63 8.63 0 0 1 3.14-3.62 8.65 8.65 0 0 1 4.77-1.3 9.7 9.7 0 0 1 3.23.55 7.79 7.79 0 0 1 4.8 4.81c.48 1.26.72 2.78.72 4.56v1.38h-13.97V16h12-1.77c0-1.21-.19-1.33-.56-2.26a4.78 4.78 0 0 0-1.68-2.19 4.68 4.68 0 0 0-2.77-.79 4.89 4.89 0 0 0-4.6 2.9 6.65 6.65 0 0 0-.62 2.87v1.96c0 1.36.24 2.51.7 3.45a5.03 5.03 0 0 0 1.97 2.16c.83.5 1.8.74 2.92.74.73 0 1.39-.1 1.98-.31a4.08 4.08 0 0 0 2.52-2.53l3.62.69c-.3 1.06-.81 1.99-1.55 2.8a7.42 7.42 0 0 1-2.78 1.86c-1.12.44-2.4.66-3.82.66a9.57 9.57 0 0 1-5-1.26ZM114.51 5.34l2.46-5.02h3.94l-3.46 5.02z"></path><ellipse cx="32.91" cy="17.93" rx="7.79" ry="8.45"></ellipse></g></svg>