<svg height="18" viewBox="0 0 115 18" width="115" xmlns="http://www.w3.org/2000/svg"><path d="m.232 17v-11.92h1.52l6.688 9.232-.72.112v-9.344h1.872v11.92h-1.52l-6.64-9.296.688-.128v9.424zm16.288.192c-.8853333 0-1.672-.1866667-2.36-.56s-1.2266667-.8853333-1.616-1.536-.584-1.392-.584-2.224v-7.792h1.888v7.712c0 .5226667.1146667.9866667.344 1.392s.544.72.944.944.8613333.336 1.384.336c.5333333 0 1-.112 1.4-.336s.7146667-.5386667.944-.944.344-.8693333.344-1.392v-7.712h1.872v7.792c0 .832-.192 1.5733333-.576 2.224s-.92 1.1626667-1.608 1.536-1.48.56-2.376.56zm-.896-13.696 1.168-2.64h2.368l-1.744 2.64zm7.824 13.504v-11.92h4.336c.8 0 1.504.14666667 2.112.44s1.0853333.72 1.432 1.28.52 1.22933333.52 2.008c0 .82133333-.2053333 1.5253333-.616 2.112s-.9626667 1.0133333-1.656 1.28l2.752 4.8h-2.144l-2.928-5.2 1.232.72h-3.152v4.48zm1.888-6.16h2.48c.4373333 0 .816-.0853333 1.136-.256s.568-.408.744-.712.264-.664.264-1.08-.088-.776-.264-1.08-.424-.53866667-.744-.704-.6986667-.248-1.136-.248h-2.48zm8.576 6.16v-11.92h1.888v11.92zm3.296 0 4.192-11.92h2.336l4.192 11.92h-2.016l-.912-2.672h-4.848l-.928 2.672zm3.488-4.352h3.728l-2.112-6.24h.528zm11.44 4.352v-11.92h4.336c.8 0 1.5066667.14666667 2.12.44s1.0906667.72 1.432 1.28.512 1.22933333.512 2.008c0 .768-.1733333 1.4293333-.52 1.984s-.824.9813333-1.432 1.28-1.312.448-2.112.448h-2.448v4.48zm1.888-6.16h2.496c.4266667 0 .8-.0853333 1.12-.256s.5706667-.408.752-.712.272-.664.272-1.08-.0906667-.776-.272-1.08-.432-.53866667-.752-.704-.6933333-.248-1.12-.248h-2.496zm8.448 6.16v-11.92h7.856v1.68h-5.968v3.424h5.648v1.68h-5.648v3.456h5.968v1.68zm9.616 0v-11.92h1.888v10.24h5.152v1.68zm7.568 0 4.192-11.92h2.336l4.192 11.92h-2.016l-.912-2.672h-4.848l-.928 2.672zm3.488-4.352h3.728l-2.112-6.24h.528zm11.664 4.352v-5.376l-4.08-6.544h2.128l3.264 5.296h-.752l3.248-5.296h2.128l-4.064 6.544v5.376zm13.136-12.112c.874667 0 1.682667.152 2.424.456s1.392.73333333 1.952 1.288.994667 1.20533333 1.304 1.952.464 1.5626667.464 2.448-.157333 1.7013333-.472 2.448-.749333 1.3973333-1.304 1.952-1.205333.9866667-1.952 1.296-1.552.464-2.416.464-1.666667-.1546667-2.408-.464-1.392-.7413333-1.952-1.296-.997333-1.2053333-1.312-1.952-.472-1.5626667-.472-2.448.157333-1.704.472-2.456.749333-1.40266667 1.304-1.952 1.205333-.976 1.952-1.28 1.552-.456 2.416-.456zm0 1.712c-.618667 0-1.186667.112-1.704.336s-.968.53866667-1.352.944-.68.87466667-.888 1.408-.312 1.1146667-.312 1.744.104 1.2133333.312 1.752.504 1.008.888 1.408.837333.712 1.36.936 1.088.336 1.696.336c.618667 0 1.186667-.112 1.704-.336s.968-.536 1.352-.936.682667-.8693333.896-1.408.32-1.1226667.32-1.752-.106667-1.21066667-.32-1.744-.512-1.00266667-.896-1.408-.834667-.72-1.352-.944-1.085333-.336-1.704-.336zm.056 3.4c.552285 0 1 .4477153 1 1s-.447715 1-1 1-1-.4477153-1-1 .447715-1 1-1z" fill="#e9e9e7"/></svg>