<svg xmlns="http://www.w3.org/2000/svg" xmlns:xlink="http://www.w3.org/1999/xlink" width="226" height="42" viewBox="0 0 226 42"><defs><path id="a" d="M0 0h28.89v42H0z"></path></defs><g fill="none" fill-rule="evenodd"><path d="M50.55 32.28V20.33l4.22 11.96h4.09l4.18-11.93V32.3h4.7V13.2h-5.71l-5.17 13.3-5.25-13.29h-5.77V32.3h4.7v-.01Zm27.76 0 1.2-3.5h7.3l1.21 3.51h5.02L85.9 13.2h-5.42l-7.14 19.08h4.97Zm7.3-7.03h-4.88l2.46-7.07 2.41 7.08v-.01Zm21.9 7.2c2.48 0 4.54-.65 6.16-1.93a8.85 8.85 0 0 0 3.16-5.21h-4.98a4.56 4.56 0 0 1-4.42 2.82c-1.27.04-2.5-.5-3.33-1.48a5.92 5.92 0 0 1-1.27-3.98 6 6 0 0 1 1.27-4 4.16 4.16 0 0 1 3.33-1.49 4.53 4.53 0 0 1 4.42 2.86h4.98a8.8 8.8 0 0 0-3.16-5.22 9.62 9.62 0 0 0-6.15-1.93 9.8 9.8 0 0 0-5 1.23 8.44 8.44 0 0 0-3.3 3.47c-.8 1.57-1.2 3.32-1.17 5.08 0 1.9.38 3.6 1.16 5.09a8.44 8.44 0 0 0 3.32 3.44 9.82 9.82 0 0 0 4.99 1.24Zm24.62 0a9.6 9.6 0 0 0 6.15-1.93 8.85 8.85 0 0 0 3.16-5.21h-4.99a4.56 4.56 0 0 1-4.4 2.82c-1.29.04-2.51-.5-3.34-1.48a5.92 5.92 0 0 1-1.26-3.98c0-1.67.42-3 1.26-4a4.16 4.16 0 0 1 3.33-1.49 4.53 4.53 0 0 1 4.41 2.86h5a8.8 8.8 0 0 0-3.17-5.22 9.62 9.62 0 0 0-6.15-1.93c-1.9 0-3.55.4-5 1.23a8.44 8.44 0 0 0-3.31 3.47c-.8 1.57-1.2 3.32-1.17 5.08 0 1.9.39 3.6 1.17 5.09a8.44 8.44 0 0 0 3.32 3.45 9.82 9.82 0 0 0 4.99 1.24Zm20.43-.16v-8.01h7.37v8.01h4.76V13.08h-4.75v7.44h-7.38v-7.44h-4.71v19.2h4.71v.01Zm23.83 0V13.08h-4.71v19.2h4.7v.01Zm11.72 0V20.5l7.88 11.8h4.7V13.08H196v11.9l-7.88-11.9h-4.71v19.2h4.7v.01Zm23.15 0 1.2-3.5h7.31l1.2 3.5H226l-7.14-19.09h-5.42l-7.14 19.08h4.96v.01Zm7.3-7.04h-4.87l2.45-7.07 2.42 7.08v-.01Z" fill="#242627" fill-rule="nonzero"></path><g><mask id="b" fill="#fff"><use xlink:href="#a"></use></mask><g mask="url(#b)"><path fill="#242627" fill-rule="nonzero" d="M-3.26 43.14V6.94l14.16 36.2h7.01L32 6.94v36.2h8.05v-48.3h-9.66L14.55 33.41-1.56-5.16h-9.68v48.3z"></path><path fill="#242627" fill-rule="nonzero" d="M-3.26 43.14V6.94l14.16 36.2h7.01L32 6.94v36.2h8.05v-48.3h-9.66L14.55 33.41-1.56-5.16h-9.68v48.3z"></path></g></g></g></svg>