<svg xmlns="http://www.w3.org/2000/svg" width="193" height="38" viewBox="0 0 193 38"><g fill="#242627" fill-rule="nonzero"><path d="M0 9.45 9.53 0h12.4a13.24 13.24 0 0 0-3.6 2.53L2.67 18.03A11.64 11.64 0 0 1 0 10.57V9.45ZM10.58 38H9.53L0 28.55V16.26c.64 1.3 1.48 2.51 2.56 3.58l15.64 15.5A11.87 11.87 0 0 1 10.66 38h-.08Zm27.75-9.45L28.8 38H16.4a13.24 13.24 0 0 0 3.61-2.53l15.64-15.5c1.74 2.1 2.7 4.74 2.68 7.47v1.11Zm-2.55-10.39L20.14 2.66A11.87 11.87 0 0 1 27.68 0h1.12l9.53 9.45v12.29a13.1 13.1 0 0 0-2.55-3.58ZM50.37 12.41V8.87h16.8v3.54h-6.26v16.72h-4.27V12.41h-6.27Zm25.57 17.03a8.14 8.14 0 0 1-4.08-.97 6.4 6.4 0 0 1-2.63-2.7 8.95 8.95 0 0 1-.9-4.19 9 9 0 0 1 .9-4.1 6.74 6.74 0 0 1 2.58-2.76 7.57 7.57 0 0 1 3.92-.99c1.03 0 1.97.17 2.84.48 1.8.66 3.2 2.07 3.85 3.85.37.97.55 2.1.55 3.4v1.14H70.02V20h10.9l-1.98.69c0-.78-.11-1.45-.36-2.03a2.8 2.8 0 0 0-2.8-1.79c-.7 0-1.29.17-1.77.49-.47.31-.84.74-1.1 1.29a4.35 4.35 0 0 0-.38 1.87v1.84c0 .82.14 1.52.43 2.11A3.2 3.2 0 0 0 76 26.3c.49 0 .91-.07 1.3-.2a2.64 2.64 0 0 0 1.63-1.55l3.9.25c-.17.9-.58 1.75-1.2 2.45-.6.7-1.39 1.24-2.34 1.62-.96.38-2.07.58-3.33.58l-.02-.01Zm15.74 0a7.78 7.78 0 0 1-4.04-1.02 6.71 6.71 0 0 1-2.6-2.74 8.8 8.8 0 0 1-.89-4.08c0-1.56.3-2.93.91-4.12a6.7 6.7 0 0 1 2.6-2.76 7.8 7.8 0 0 1 4.02-.99c1.34 0 2.5.24 3.51.72 1 .48 1.8 1.16 2.38 2.03.59.87.9 1.9.96 3.08h-4a3.4 3.4 0 0 0-.47-1.35 2.44 2.44 0 0 0-.95-.88c-.38-.2-.85-.3-1.37-.3-.66 0-1.23.17-1.72.51-.5.36-.87.86-1.15 1.55a6.62 6.62 0 0 0-.4 2.46c0 .95.13 1.77.41 2.47.26.7.64 1.21 1.14 1.58.49.35 1.06.54 1.72.54.73 0 1.35-.22 1.86-.7.5-.45.8-1.08.93-1.9h4a6.3 6.3 0 0 1-.95 3.09 5.76 5.76 0 0 1-2.33 2.06c-1.01.5-2.19.75-3.57.75Zm12.93-9.1v8.8h-4.24V13.91h4.18v2.71h.15c.35-.9.9-1.6 1.66-2.13.77-.5 1.71-.77 2.85-.77 1.06 0 2 .23 2.79.7.79.45 1.4 1.11 1.84 1.97.43.85.66 1.87.66 3.06v9.67h-4.24V20.2c0-.92-.26-1.64-.73-2.18a2.57 2.57 0 0 0-2-.8c-.57 0-1.08.13-1.51.39-.45.25-.78.6-1.02 1.06a3.37 3.37 0 0 0-.39 1.67Zm19.28 9.1c-1.4.03-2.79-.3-4-1a6.65 6.65 0 0 1-2.62-2.74 8.8 8.8 0 0 1-.9-4.1c0-1.59.3-2.95.9-4.13a6.65 6.65 0 0 1 2.61-2.75 7.85 7.85 0 0 1 4.01-.99c1.56 0 2.9.33 4.04.99a6.65 6.65 0 0 1 2.6 2.75c.6 1.18.91 2.54.91 4.13a8.8 8.8 0 0 1-.9 4.1 6.65 6.65 0 0 1-2.6 2.75 7.9 7.9 0 0 1-4.05.99Zm.04-3.3c.7 0 1.3-.2 1.76-.6.48-.38.85-.93 1.1-1.61.23-.7.35-1.48.35-2.36 0-.89-.13-1.67-.36-2.35a3.57 3.57 0 0 0-1.09-1.61 2.7 2.7 0 0 0-1.76-.59c-.71 0-1.31.2-1.79.59-.48.38-.84.92-1.08 1.6a7 7 0 0 0-.37 2.36c0 .89.12 1.66.37 2.36.24.68.6 1.23 1.07 1.62.49.4 1.09.6 1.79.6h.01Zm13.65-17.27v20.26h-4.24V8.87h4.24Zm9.39 20.57c-1.4.03-2.79-.3-4.01-1a6.65 6.65 0 0 1-2.6-2.74 8.8 8.8 0 0 1-.93-4.1c0-1.59.3-2.95.92-4.13a6.65 6.65 0 0 1 2.6-2.75 7.85 7.85 0 0 1 4.02-.99c1.56 0 2.9.33 4.04.99a6.65 6.65 0 0 1 2.6 2.75c.6 1.18.91 2.54.91 4.13a8.8 8.8 0 0 1-.9 4.1 6.65 6.65 0 0 1-2.61 2.75 7.9 7.9 0 0 1-4.04.99Zm.03-3.3c.71 0 1.3-.2 1.77-.6.47-.38.83-.93 1.07-1.61.26-.7.38-1.48.38-2.36 0-.89-.13-1.67-.38-2.35a3.57 3.57 0 0 0-1.07-1.61 2.7 2.7 0 0 0-1.77-.59c-.7 0-1.3.2-1.8.59-.47.38-.84.92-1.08 1.6a7 7 0 0 0-.36 2.36c0 .89.13 1.66.36 2.36.26.68.61 1.23 1.09 1.62.48.4 1.08.6 1.79.6Zm16.26 9.01c-1.7.1-3.4-.33-4.85-1.22a4.88 4.88 0 0 1-2.15-3.04l3.93-.5c.28.7.86 1.24 1.59 1.48.43.16.96.25 1.58.25.92 0 1.69-.23 2.3-.67.6-.44.9-1.18.9-2.22v-2.78h-.18a4.04 4.04 0 0 1-2.28 2.11c-.58.24-1.27.36-2.1.36a5.73 5.73 0 0 1-5.38-3.24c-.61-1.3-.9-2.74-.85-4.17 0-1.72.28-3.17.86-4.32a5.82 5.82 0 0 1 7.54-3.03c.57.28 1.05.63 1.4 1.07.39.43.66.84.83 1.26h.17v-2.56h4.2v15.38c0 1.3-.33 2.37-.97 3.24a5.82 5.82 0 0 1-2.65 1.95c-1.13.45-2.43.66-3.89.66v-.01Zm.1-9.4c1.01 0 1.8-.38 2.37-1.14.56-.76.84-1.78.84-3.13 0-.88-.13-1.64-.38-2.32a3.27 3.27 0 0 0-1.09-1.53 2.79 2.79 0 0 0-1.75-.56c-.7 0-1.28.2-1.76.57-.49.38-.85.9-1.1 1.56a6.57 6.57 0 0 0-.37 2.28c-.02.78.11 1.55.38 2.28.24.64.6 1.12 1.09 1.47.47.34 1.06.5 1.76.5v.02Zm9.9 3.38v-15.2h4.24v15.2h-4.25.02Zm2.11-17.16c-.63 0-1.17-.2-1.62-.62a2 2 0 0 1-.68-1.52c0-.58.23-1.08.68-1.5.44-.4 1.02-.63 1.62-.62.64 0 1.2.2 1.64.64.45.4.66.9.66 1.5 0 .57-.21 1.08-.66 1.5-.45.42-1 .63-1.64.63v-.01Zm8.99 17.45c-.9.02-1.79-.15-2.6-.5a4.08 4.08 0 0 1-1.84-1.52 4.48 4.48 0 0 1-.65-2.51 3.8 3.8 0 0 1 1.74-3.5 6.2 6.2 0 0 1 1.84-.82c.69-.18 1.4-.3 2.18-.38.9-.08 1.6-.16 2.15-.25.54-.08.93-.2 1.19-.37a.8.8 0 0 0 .38-.72v-.07c0-.63-.2-1.11-.61-1.45-.38-.36-.96-.52-1.67-.52-.77 0-1.37.16-1.83.5a2.4 2.4 0 0 0-.9 1.26l-3.93-.32a5.36 5.36 0 0 1 3.45-3.97 9.8 9.8 0 0 1 5.67-.26c.78.2 1.47.5 2.08.93a4.5 4.5 0 0 1 1.99 3.92v10.26h-4.06v-2.12h-.1c-.5 1-1.4 1.75-2.48 2.1a5.7 5.7 0 0 1-2 .31Zm1.22-2.9c.63 0 1.18-.14 1.67-.39a2.66 2.66 0 0 0 1.52-2.43v-1.6c-.13.07-.31.14-.54.22a18.5 18.5 0 0 1-2.4.44c-.5.08-.94.2-1.32.36-.38.15-.66.36-.87.63-.2.27-.3.6-.3 1.01 0 .56.2 1 .63 1.3.41.3.95.45 1.61.45Z"></path></g></svg>